<svg width="512" height="512" viewBox="0 0 512 512" fill="none" xmlns="http://www.w3.org/2000/svg">
<path d="M511.402 173.657L506.53 176.734L502.513 179.212L467.816 201.091L458.244 207.073L341.333 280.399L334.923 284.416L300.91 305.781L299.115 306.891L297.235 308.089L294.5 309.798L268.605 326.035L266.213 327.659L265.956 327.745L265.7 327.916L256.043 333.983L255.701 334.154L247.753 329.198L246.3 328.257L246.044 328.086L235.019 321.164L216.901 309.798L214.85 308.516L210.492 305.781L176.478 284.416L170.068 280.399L66.66 215.448L54.439 207.842L44.696 201.689L0.598 173.999L0 173.657L0.598 173.316L1.026 173.059L44.696 145.627L54.439 139.473L116.655 100.417L122.979 96.401L156.993 75.035L163.317 71.104L249.548 16.921H261.854L340.051 66.062L401.327 104.519L458.244 140.242L464.74 144.344L467.816 146.31L490.036 160.24L510.974 173.402L511.402 173.657Z" fill="#C4C4C4"/>
<path d="M467.816 16.066V399.875C467.816 400.131 467.816 400.473 467.73 400.728C467.559 404.745 465.679 408.25 462.859 410.984C459.612 413.975 455.167 415.855 450.21 415.855H62.3023C57.3453 415.855 52.9013 413.975 49.6533 410.984C46.5773 408.079 44.6963 404.233 44.6963 399.875V16.066C44.6963 7.178 52.6453 0 62.3023 0H450.211C459.954 0 467.816 7.178 467.816 16.066Z" fill="#5EB2B2"/>
<path d="M301.267 75.0709H110.759V100.449H301.267V75.0709Z" fill="#86CCCA"/>
<path d="M301.267 71.064H110.759V96.442H301.267V71.064Z" fill="#52A6A3"/>
<path d="M400.26 214.653H110.759V240.031H400.26V214.653Z" fill="#86CCCA"/>
<path d="M400.26 210.646H110.759V236.024H400.26V210.646Z" fill="#52A6A3"/>
<path d="M400.26 284.444H110.759V309.822H400.26V284.444Z" fill="#86CCCA"/>
<path d="M400.26 280.437H110.759V305.815H400.26V280.437Z" fill="#52A6A3"/>
<path d="M400.26 144.862H110.759V170.24H400.26V144.862Z" fill="#86CCCA"/>
<path d="M400.26 140.855H110.759V166.233H400.26V140.855Z" fill="#52A6A3"/>
<path d="M256.299 322.104L253.308 323.813L246.044 328.086L195.45 357.656L188.357 361.844L108.451 408.506L95.8017 415.855L12.3917 464.569L5.98166 468.244L0.597656 471.405V172.803L1.02566 173.059L44.6957 198.527L71.4457 214.166L110.758 237.156L115.8 240.061L184.853 280.399L191.776 284.416L223.652 303.046L228.353 305.781L235.19 309.798L244.078 314.925L246.642 316.464L248.009 317.233L256.043 321.933L256.299 322.104Z" fill="white"/>
<path d="M511.972 172.795V471.458L511.887 471.384L511.46 471.09L511.117 470.87H511.031L263.706 326.496L259.348 323.925L256.271 322.089L266.014 316.435L266.271 316.288L266.527 316.141L275.5 310.927L511.972 172.795Z" fill="#E3E2E2"/>
<path opacity="0.68" d="M377.114 113.257C398.203 113.257 415.3 96.1606 415.3 75.071C415.3 53.9815 398.203 36.885 377.114 36.885C356.024 36.885 338.928 53.9815 338.928 75.071C338.928 96.1606 356.024 113.257 377.114 113.257Z" fill="#EEF3CA"/>
<path d="M511.972 425.222V471.03H511.459L504.109 471.372H27.6623L27.3213 464.278C35.9533 458.382 47.4033 450.433 54.8393 445.391L55.8633 444.707L80.8193 427.529L119.789 400.609L131.07 392.832L249.435 311.217L257.382 305.661C259.262 304.466 261.398 303.439 263.706 302.757C266.441 301.816 269.432 301.218 272.423 300.962C273.449 300.876 274.388 300.791 275.414 300.876C276.439 300.705 277.466 300.705 278.491 300.705C281.226 300.62 283.876 300.876 286.439 301.388C289.173 301.901 291.652 302.757 293.874 303.952L383.609 353.862L427.963 378.559L439.501 384.969L481.291 408.214L508.809 423.512C509.579 423.94 510.433 424.367 511.288 424.88C511.459 424.966 511.716 425.137 511.972 425.222Z" fill="#757575"/>
<path d="M512 441.408V471.405H0.597656V441.408C9.57066 435.939 21.3647 428.503 29.0567 423.889L30.0817 423.206L49.6517 410.985L55.8047 407.224L96.0567 382.27L107.68 375.005L212.712 309.799L214.849 308.517L219.208 305.783L223.652 303.048L229.806 299.203L238.01 294.074C242.283 291.511 247.838 290.229 253.307 290.143C254.332 290.057 255.272 290.057 256.298 290.143C257.324 290.057 258.349 290.057 259.375 290.143C261.768 290.143 264.075 290.4 266.297 290.913C269.374 291.511 272.194 292.622 274.587 294.074L286.466 301.425L289.03 303.048L293.474 305.783L297.234 308.091L299.969 309.8L361.843 348.258L404.915 375.007L416.11 382.015L456.79 407.226L462.858 410.987L483.54 423.892C484.309 424.319 485.078 424.746 485.933 425.26C491.403 428.763 498.411 433.122 504.991 437.138C507.385 438.673 509.778 440.127 512 441.408Z" fill="#EAEAEA"/>
<path opacity="0.2" d="M467.816 16.066V20.339C467.816 11.452 459.954 4.273 450.211 4.273H62.3023C52.6453 4.273 44.6973 11.451 44.6973 20.339V16.066C44.6963 7.178 52.6453 0 62.3023 0H450.211C459.954 0 467.816 7.178 467.816 16.066Z" fill="#ABDBDF"/>
</svg>
