<svg width="413" height="230" viewBox="0 0 413 230" fill="none" xmlns="http://www.w3.org/2000/svg">
<g clip-path="url(#clip0_479_455)">
<mask id="mask0_479_455" style="mask-type:luminance" maskUnits="userSpaceOnUse" x="0" y="0" width="413" height="275">
<path d="M413 0H0V275H413V0Z" fill="white"/>
</mask>
<g mask="url(#mask0_479_455)">
<path d="M413 0H0V275H413V0Z" fill="url(#paint0_radial_479_455)"/>
<path d="M75.0285 179.438H64.7035C61.8523 179.438 59.541 181.746 59.541 184.594C59.541 187.441 61.8523 189.75 64.7035 189.75H75.0285C77.8797 189.75 80.191 187.441 80.191 184.594C80.191 181.746 77.8797 179.438 75.0285 179.438Z" fill="url(#paint1_linear_479_455)"/>
<path d="M79.3305 173.594H60.7455C54.7581 173.594 49.9043 178.442 49.9043 184.422C49.9043 190.402 54.7581 195.25 60.7455 195.25H79.3305C85.318 195.25 90.1718 190.402 90.1718 184.422C90.1718 178.442 85.318 173.594 79.3305 173.594Z" fill="url(#paint2_radial_479_455)"/>
<path d="M68.243 187.411C67.999 187.411 67.7735 187.348 67.5674 187.223C67.3636 187.098 67.1988 186.931 67.0735 186.723C66.9503 186.512 66.8887 186.282 66.8887 186.031L66.8952 183.853C66.8952 183.598 66.9568 183.368 67.08 183.165C67.2012 182.959 67.3647 182.794 67.5708 182.671C67.777 182.546 68.001 182.483 68.243 182.483C68.4939 182.483 68.7193 182.544 68.9186 182.667C69.1202 182.791 69.2817 182.956 69.4025 183.165C69.5257 183.37 69.5873 183.6 69.5873 183.853L69.5942 186.031C69.5942 186.282 69.5336 186.511 69.4128 186.72C69.2896 186.93 69.1258 187.098 68.922 187.223C68.7179 187.348 68.4918 187.411 68.243 187.411ZM68.243 186.582C68.382 186.582 68.5028 186.526 68.6061 186.414C68.709 186.3 68.7606 186.172 68.7606 186.031L68.7541 183.853C68.7541 183.7 68.7059 183.572 68.6095 183.467C68.5131 183.362 68.391 183.309 68.243 183.309C68.1019 183.309 67.9807 183.36 67.8802 183.463C67.7794 183.566 67.7288 183.696 67.7288 183.853V186.031C67.7288 186.181 67.7794 186.311 67.8802 186.421C67.9807 186.528 68.1019 186.582 68.243 186.582ZM70.8645 187.344H70.1755C70.1397 187.344 70.1218 187.328 70.1218 187.297L70.1152 182.614C70.1152 182.578 70.1331 182.56 70.1689 182.56H70.7908L71.9534 185.269L71.92 182.614C71.92 182.578 71.94 182.56 71.9806 182.56H72.6628C72.6896 182.56 72.703 182.578 72.703 182.614L72.7099 187.304C72.7099 187.33 72.6985 187.344 72.6762 187.344H72.0711L70.8779 184.813L70.9285 187.29C70.9285 187.326 70.9072 187.344 70.8645 187.344Z" fill="white"/>
<path d="M70.3819 169.812C90.4351 169.812 106.691 153.576 106.691 133.547C106.691 113.518 90.4351 97.2812 70.3819 97.2812C50.3286 97.2812 34.0723 113.518 34.0723 133.547C34.0723 153.576 50.3286 169.812 70.3819 169.812Z" fill="#101010"/>
<path d="M67.8181 119.328C68.7958 117.172 71.8634 117.175 72.8367 119.334L89.3622 155.986C90.5506 158.621 87.3857 161.068 85.1286 159.26L72.0513 148.78C71.047 147.975 69.6181 147.973 68.6114 148.775L55.4102 159.295C53.149 161.097 49.9916 158.642 51.1848 156.01L67.8181 119.328Z" fill="url(#paint3_linear_479_455)"/>
<path d="M69.0697 126.317C69.5536 125.222 71.1106 125.224 71.5907 126.321L77.7671 140.433L83.4317 153.377C83.9724 154.612 82.5944 155.806 81.4462 155.097L71.0558 148.679C70.6139 148.406 70.0554 148.405 69.6124 148.676L59.0961 155.114C57.9455 155.819 56.5726 154.621 57.1171 153.387L69.0697 126.317Z" fill="#101010"/>
<path d="M61.5449 113.576L62.8256 106.492C62.8325 106.465 62.849 106.451 62.8758 106.451H64.3733C64.4001 106.451 64.417 106.465 64.4239 106.492L65.6539 113.576C65.6574 113.61 65.6436 113.627 65.6137 113.627H64.469C64.4356 113.627 64.417 113.61 64.4136 113.576L64.3027 112.821H62.8961L62.7853 113.576C62.7819 113.61 62.765 113.627 62.7347 113.627H61.5852C61.5583 113.627 61.5449 113.61 61.5449 113.576ZM63.5666 108.823L63.103 111.718H64.0959L63.6726 108.823L63.612 108.44L63.5666 108.823ZM67.9881 113.727C67.625 113.727 67.2891 113.633 66.9797 113.445C66.6706 113.258 66.4235 113.006 66.2387 112.69C66.0573 112.371 65.9664 112.024 65.9664 111.648L65.9867 106.492C65.9867 106.465 66.0002 106.451 66.027 106.451H67.1865C67.2133 106.451 67.2268 106.465 67.2268 106.492V111.648C67.2268 111.879 67.3008 112.077 67.4488 112.242C67.5964 112.403 67.7764 112.484 67.9881 112.484C68.2101 112.484 68.3949 112.403 68.5425 112.242C68.6905 112.077 68.7645 111.879 68.7645 111.648V106.492C68.7645 106.465 68.7779 106.451 68.8048 106.451H69.9643C69.9911 106.451 70.0045 106.465 70.0045 106.492L70.0248 111.648C70.0248 112.027 69.934 112.376 69.7526 112.695C69.5678 113.011 69.3224 113.262 69.0164 113.45C68.7108 113.635 68.368 113.727 67.9881 113.727ZM73.0397 113.627H71.8751C71.8448 113.627 71.8297 113.61 71.8297 113.576V107.695H70.4888C70.4551 107.695 70.4382 107.678 70.4382 107.644L70.4482 106.492C70.4482 106.465 70.4616 106.451 70.4888 106.451H74.4109C74.4481 106.451 74.4663 106.465 74.4663 106.492V107.644C74.4663 107.678 74.4529 107.695 74.426 107.695H73.07L73.08 113.576C73.08 113.61 73.0666 113.627 73.0397 113.627ZM76.8813 113.727C76.5148 113.727 76.1772 113.633 75.8678 113.445C75.5621 113.258 75.315 113.007 75.1268 112.695C74.942 112.38 74.8497 112.034 74.8497 111.658L74.8597 108.39C74.8597 108.007 74.9519 107.663 75.1368 107.357C75.3185 107.049 75.5639 106.802 75.8729 106.617C76.1823 106.429 76.5182 106.335 76.8813 106.335C77.2579 106.335 77.5955 106.428 77.8946 106.613C78.1971 106.797 78.439 107.045 78.6208 107.357C78.8056 107.666 78.8978 108.011 78.8978 108.39L78.9081 111.658C78.9081 112.034 78.8173 112.378 78.6356 112.69C78.4507 113.006 78.2053 113.258 77.8997 113.445C77.5938 113.633 77.2544 113.727 76.8813 113.727ZM76.8813 112.484C77.0896 112.484 77.2713 112.4 77.4258 112.232C77.5803 112.061 77.6578 111.869 77.6578 111.658L77.6474 108.39C77.6474 108.161 77.5752 107.969 77.431 107.811C77.2864 107.653 77.103 107.574 76.8813 107.574C76.6697 107.574 76.488 107.651 76.3369 107.806C76.1854 107.96 76.1101 108.155 76.1101 108.39V111.658C76.1101 111.883 76.1854 112.077 76.3369 112.242C76.488 112.403 76.6697 112.484 76.8813 112.484Z" fill="#3B9DA4"/>
<path d="M348.813 178.406H336.423C333.287 178.406 330.744 180.946 330.744 184.078C330.744 187.211 333.287 189.75 336.423 189.75H348.813C351.949 189.75 354.492 187.211 354.492 184.078C354.492 180.946 351.949 178.406 348.813 178.406Z" fill="url(#paint4_linear_479_455)"/>
<path d="M337.943 186.623L338.797 181.899C338.802 181.882 338.813 181.873 338.831 181.873H339.829C339.847 181.873 339.858 181.882 339.862 181.899L340.683 186.623C340.685 186.645 340.676 186.656 340.656 186.656H339.893C339.87 186.656 339.858 186.645 339.856 186.623L339.782 186.119H338.844L338.77 186.623C338.768 186.645 338.757 186.656 338.737 186.656H337.97C337.952 186.656 337.943 186.645 337.943 186.623ZM339.291 183.454L338.982 185.384H339.644L339.362 183.454L339.321 183.198L339.291 183.454ZM342.38 186.649L341.147 186.656C341.124 186.656 341.113 186.645 341.113 186.623L341.126 181.899C341.126 181.882 341.135 181.873 341.153 181.873L342.44 181.866C342.696 181.859 342.927 181.917 343.133 182.04C343.341 182.163 343.507 182.33 343.63 182.54C343.756 182.749 343.818 182.979 343.818 183.232V185.206C343.818 185.47 343.755 185.712 343.627 185.931C343.497 186.148 343.324 186.322 343.109 186.451C342.894 186.579 342.651 186.645 342.38 186.649ZM342.44 182.688L341.96 182.695L341.953 185.81H342.38C342.55 185.81 342.694 185.751 342.81 185.632C342.927 185.514 342.985 185.372 342.985 185.206V183.226C342.985 183.08 342.931 182.954 342.824 182.846C342.716 182.736 342.588 182.684 342.44 182.688ZM345.627 186.649L344.394 186.656C344.37 186.656 344.36 186.645 344.36 186.623L344.374 181.899C344.374 181.882 344.381 181.873 344.401 181.873L345.688 181.866C345.943 181.859 346.174 181.917 346.38 182.04C346.587 182.163 346.752 182.33 346.876 182.54C347.003 182.749 347.065 182.979 347.065 183.232V185.206C347.065 185.47 347 185.712 346.872 185.931C346.745 186.148 346.57 186.322 346.356 186.451C346.139 186.579 345.898 186.645 345.627 186.649ZM345.688 182.688L345.207 182.695L345.2 185.81H345.627C345.799 185.81 345.94 185.751 346.057 185.632C346.174 185.514 346.232 185.372 346.232 185.206V183.226C346.232 183.08 346.177 182.954 346.071 182.846C345.964 182.736 345.836 182.684 345.688 182.688Z" fill="url(#paint5_linear_479_455)"/>
<path d="M342.789 164.656C359.896 164.656 373.764 150.805 373.764 133.719C373.764 116.632 359.896 102.781 342.789 102.781C325.682 102.781 311.814 116.632 311.814 133.719C311.814 150.805 325.682 164.656 342.789 164.656Z" fill="url(#paint6_radial_479_455)"/>
<mask id="mask1_479_455" style="mask-type:luminance" maskUnits="userSpaceOnUse" x="323" y="115" width="39" height="38">
<path d="M361.728 115.098H323.854V152.926H361.728V115.098Z" fill="white"/>
</mask>
<g mask="url(#mask1_479_455)">
<path d="M329.771 134.012H355.811" stroke="#E6E6E6" stroke-width="4" stroke-linecap="round" stroke-linejoin="round"/>
<path d="M342.791 121.008V147.016" stroke="#E6E6E6" stroke-width="4" stroke-linecap="round" stroke-linejoin="round"/>
</g>
<path d="M280.04 43.9609L279.99 52.7049" stroke="#03C4D0" stroke-width="2" stroke-linecap="round" stroke-linejoin="round"/>
<path d="M284.393 48.3583L275.639 48.3081" stroke="#03C4D0" stroke-width="2" stroke-linecap="round" stroke-linejoin="round"/>
<path d="M413 0H0V20.9688H413V0Z" fill="url(#paint7_linear_479_455)"/>
<path d="M7.66406 15.4686H5.9096C5.85921 15.4686 5.83398 15.4435 5.83398 15.3931L5.84913 4.76587C5.84913 4.72561 5.8693 4.70547 5.9096 4.70547H7.64895C7.68925 4.70547 7.70942 4.72561 7.70942 4.76587L7.72456 15.3931C7.72456 15.4435 7.70439 15.4686 7.66406 15.4686ZM12.2619 15.6197C11.6065 15.6197 11.0242 15.4787 10.515 15.1967C10.0109 14.9147 9.6151 14.5396 9.32776 14.0713C9.04544 13.598 8.90426 13.0793 8.90426 12.5154L8.9194 7.61339C8.9194 7.03936 9.06306 6.52325 9.35044 6.065C9.63276 5.60176 10.026 5.23165 10.5301 4.95472C11.0343 4.67274 11.6115 4.53174 12.2619 4.53174C12.9274 4.53174 13.5071 4.6702 14.0012 4.94716C14.4953 5.22412 14.8835 5.59671 15.1658 6.065C15.4532 6.52827 15.5969 7.04441 15.5969 7.61339L15.612 12.5154C15.612 13.0743 15.4708 13.5904 15.1885 14.0638C14.9011 14.5371 14.5054 14.9147 14.0012 15.1967C13.5021 15.4787 12.9223 15.6197 12.2619 15.6197ZM13.7365 12.5154L13.7214 7.61339C13.7214 7.25087 13.5853 6.95628 13.3131 6.72968C13.0459 6.50311 12.6955 6.38981 12.2619 6.38981C11.8183 6.38981 11.4628 6.50311 11.1956 6.72968C10.9284 6.95628 10.7948 7.25087 10.7948 7.61339V12.5154C10.7948 12.8981 10.9284 13.2002 11.1956 13.4217C11.4628 13.6433 11.8183 13.7541 12.2619 13.7541C12.6955 13.7541 13.0484 13.6433 13.3206 13.4217C13.5979 13.2002 13.7365 12.8981 13.7365 12.5154ZM18.5991 15.4686H16.8446C16.8043 15.4686 16.7841 15.4485 16.7841 15.4082V13.6559C16.7841 13.6156 16.8043 13.5955 16.8446 13.5955H18.5991C18.6394 13.5955 18.6596 13.6156 18.6596 13.6559V15.4082C18.6596 15.4485 18.6394 15.4686 18.5991 15.4686ZM21.7601 15.4686H20.0057C19.9552 15.4686 19.93 15.4435 19.93 15.3931L19.9452 4.76587C19.9452 4.72561 19.9653 4.70547 20.0057 4.70547H21.745C21.7853 4.70547 21.8055 4.72561 21.8055 4.76587L21.8206 15.3931C21.8206 15.4435 21.8004 15.4686 21.7601 15.4686ZM26.358 15.6197C25.7026 15.6197 25.1203 15.4787 24.6111 15.1967C24.1069 14.9147 23.7112 14.5396 23.4238 14.0713C23.1415 13.598 23.0003 13.0793 23.0003 12.5154L23.0154 7.61339C23.0154 7.03936 23.1591 6.52325 23.4465 6.065C23.7288 5.60176 24.122 5.23165 24.6262 4.95472C25.1303 4.67274 25.7076 4.53174 26.358 4.53174C27.0234 4.53174 27.6032 4.6702 28.0973 4.94716C28.5914 5.22412 28.9795 5.59671 29.2619 6.065C29.5492 6.52827 29.6929 7.04441 29.6929 7.61339L29.708 12.5154C29.708 13.0743 29.5669 13.5904 29.2845 14.0638C28.9972 14.5371 28.6014 14.9147 28.0973 15.1967C27.5982 15.4787 27.0184 15.6197 26.358 15.6197ZM27.8326 12.5154L27.8175 7.61339C27.8175 7.25087 27.6813 6.95628 27.4091 6.72968C27.1419 6.50311 26.7915 6.38981 26.358 6.38981C25.9143 6.38981 25.5589 6.50311 25.2917 6.72968C25.0245 6.95628 24.8909 7.25087 24.8909 7.61339V12.5154C24.8909 12.8981 25.0245 13.2002 25.2917 13.4217C25.5589 13.6433 25.9143 13.7541 26.358 13.7541C26.7915 13.7541 27.1444 13.6433 27.4167 13.4217C27.6939 13.2002 27.8326 12.8981 27.8326 12.5154ZM32.6951 15.4686H30.9407C30.9003 15.4686 30.8802 15.4485 30.8802 15.4082V13.6559C30.8802 13.6156 30.9003 13.5955 30.9407 13.5955H32.6951C32.7355 13.5955 32.7556 13.6156 32.7556 13.6559V15.4082C32.7556 15.4485 32.7355 15.4686 32.6951 15.4686ZM39.5845 15.4686H33.8068C33.7564 15.4686 33.7311 15.4435 33.7311 15.3931V13.6408C33.7311 13.6206 33.7412 13.6005 33.7614 13.5803L37.588 8.33849C37.6585 8.24283 37.7163 8.12197 37.7618 7.97594C37.8124 7.8249 37.8375 7.69396 37.8375 7.58317C37.8375 7.28105 37.7291 7.00413 37.5123 6.75236C37.2954 6.50057 37.0208 6.37469 36.688 6.37469C36.3703 6.37469 36.1008 6.49555 35.8788 6.73724C35.6569 6.97893 35.546 7.2861 35.546 7.65873V8.41402C35.546 8.46438 35.5209 8.48957 35.4703 8.48957H33.7311C33.6908 8.48957 33.6707 8.46438 33.6707 8.41402V7.65873C33.6707 7.07965 33.8143 6.55343 34.1017 6.08013C34.384 5.60678 34.7545 5.23165 35.2132 4.95472C35.672 4.67274 36.1638 4.53174 36.688 4.53174C37.2424 4.53174 37.7494 4.67274 38.2082 4.95472C38.6618 5.24172 39.0249 5.61685 39.2971 6.08013C39.5742 6.54336 39.7129 7.04441 39.7129 7.58317C39.7129 7.92056 39.6523 8.26548 39.5315 8.61796C39.4155 8.96539 39.2541 9.27508 39.0476 9.54698L36.1056 13.5803H39.5845C39.6296 13.5803 39.6523 13.6005 39.6523 13.6408V15.3931C39.6523 15.4435 39.6296 15.4686 39.5845 15.4686ZM44.0084 15.6197C43.3528 15.6197 42.7704 15.4787 42.2614 15.1967C41.7572 14.9147 41.3614 14.5396 41.074 14.0713C40.7918 13.598 40.6507 13.0793 40.6507 12.5154L40.6659 7.61339C40.6659 7.03936 40.8094 6.52325 41.0968 6.065C41.379 5.60176 41.7724 5.23165 42.2766 4.95472C42.7808 4.67274 43.3579 4.53174 44.0084 4.53174C44.6737 4.53174 45.2536 4.6702 45.7475 4.94716C46.2417 5.22412 46.6299 5.59671 46.9121 6.065C47.1995 6.52827 47.3434 7.04441 47.3434 7.61339L47.3582 12.5154C47.3582 13.0743 47.2171 13.5904 46.9349 14.0638C46.6475 14.5371 46.2517 14.9147 45.7475 15.1967C45.2484 15.4787 44.6689 15.6197 44.0084 15.6197ZM45.4828 12.5154L45.4677 7.61339C45.4677 7.25087 45.3317 6.95628 45.0595 6.72968C44.7921 6.50311 44.4417 6.38981 44.0084 6.38981C43.5648 6.38981 43.2093 6.50311 42.9418 6.72968C42.6748 6.95628 42.5412 7.25087 42.5412 7.61339V12.5154C42.5412 12.8981 42.6748 13.2002 42.9418 13.4217C43.2093 13.6433 43.5648 13.7541 44.0084 13.7541C44.4417 13.7541 44.7948 13.6433 45.0671 13.4217C45.3441 13.2002 45.4828 12.8981 45.4828 12.5154ZM54.0887 15.4686H48.3112C48.2609 15.4686 48.2355 15.4435 48.2355 15.3931V13.6408C48.2355 13.6206 48.2458 13.6005 48.2657 13.5803L52.0922 8.33849C52.1627 8.24283 52.2209 8.12197 52.2663 7.97594C52.3166 7.8249 52.3417 7.69396 52.3417 7.58317C52.3417 7.28105 52.2336 7.00413 52.0168 6.75236C51.8 6.50057 51.525 6.37469 51.1925 6.37469C50.8749 6.37469 50.605 6.49555 50.3834 6.73724C50.1614 6.97893 50.0506 7.2861 50.0506 7.65873V8.41402C50.0506 8.46438 50.0251 8.48957 49.9749 8.48957H48.2355C48.1952 8.48957 48.1752 8.46438 48.1752 8.41402V7.65873C48.1752 7.07965 48.3187 6.55343 48.6061 6.08013C48.8883 5.60678 49.259 5.23165 49.7178 4.95472C50.1766 4.67274 50.668 4.53174 51.1925 4.53174C51.747 4.53174 52.2536 4.67274 52.7124 4.95472C53.166 5.24172 53.5291 5.61685 53.8013 6.08013C54.0787 6.54336 54.2174 7.04441 54.2174 7.58317C54.2174 7.92056 54.1568 8.26548 54.0357 8.61796C53.9197 8.96539 53.7586 9.27508 53.5518 9.54698L50.6102 13.5803H54.0887C54.1341 13.5803 54.1568 13.6005 54.1568 13.6408V15.3931C54.1568 15.4435 54.1341 15.4686 54.0887 15.4686ZM57.9984 15.6424C57.4591 15.6424 56.9573 15.4988 56.4934 15.2118C56.0346 14.9298 55.6667 14.5522 55.3893 14.0788C55.1171 13.6005 54.9811 13.0793 54.9811 12.5154V11.8205C54.9811 11.7651 55.0011 11.7374 55.0417 11.7374H56.7808C56.8314 11.7374 56.8565 11.7651 56.8565 11.8205V12.5154C56.8565 12.8527 56.9649 13.1448 57.1817 13.3915C57.3986 13.6332 57.6708 13.7541 57.9984 13.7541C58.3615 13.7541 58.6462 13.6282 58.853 13.3764C59.0595 13.1196 59.1631 12.8326 59.1631 12.5154V12.0999C59.1631 11.7777 59.0623 11.4881 58.8606 11.2313C58.6589 10.9745 58.4042 10.8461 58.0969 10.8461H57.4918C57.4412 10.8461 57.4161 10.8184 57.4161 10.763L57.4313 9.03339C57.4313 8.9931 57.4516 8.97295 57.4918 8.97295H58.0969C58.3739 8.97295 58.621 8.86471 58.8379 8.64818C59.0547 8.43165 59.1631 8.14716 59.1631 7.79468V7.58317C59.1631 7.25087 59.0523 6.96886 58.8303 6.73724C58.6083 6.50562 58.3312 6.38981 57.9984 6.38981C57.6808 6.38981 57.4109 6.50562 57.1893 6.73724C56.9673 6.96886 56.8565 7.25087 56.8565 7.58317V8.3234C56.8565 8.37376 56.8365 8.39893 56.7959 8.39893H55.0568C55.0162 8.39893 54.9963 8.37376 54.9963 8.3234V7.50009C54.9963 6.93613 55.1398 6.43261 55.4272 5.98948C55.7097 5.54638 56.0801 5.1939 56.5388 4.93203C56.9976 4.66518 57.4842 4.53174 57.9984 4.53174C58.5581 4.53174 59.0671 4.66769 59.5258 4.9396C59.9846 5.21656 60.3477 5.58162 60.6151 6.03482C60.8874 6.48799 61.0233 6.98649 61.0233 7.5303V7.77956C61.0233 8.23276 60.9476 8.62553 60.7965 8.95786C60.6451 9.28515 60.4362 9.59985 60.1688 9.90201C60.4362 10.2091 60.6478 10.5465 60.8041 10.9141C60.9603 11.2817 61.0385 11.6594 61.0385 12.0471V12.5154C61.0385 13.0894 60.9022 13.6156 60.6299 14.094C60.3529 14.5673 59.9846 14.945 59.5258 15.2269C59.0671 15.5039 58.5581 15.6424 57.9984 15.6424Z" fill="#00F0FF"/>
<path d="M332.839 13.4449L328.887 10.4844L332.839 7.52383C332.91 7.47079 332.967 7.40204 333.007 7.32298C333.047 7.24391 333.067 7.15674 333.067 7.06836C333.067 6.97998 333.047 6.89281 333.007 6.81374C332.967 6.73468 332.91 6.66593 332.839 6.61289L328.279 3.19688C328.194 3.13344 328.094 3.09481 327.988 3.08531C327.883 3.07581 327.777 3.09583 327.682 3.14312C327.587 3.1904 327.508 3.26309 327.452 3.35303C327.396 3.44297 327.367 3.54661 327.367 3.65234V9.3457L323.719 6.61289C323.598 6.52228 323.446 6.4834 323.296 6.50475C323.147 6.52609 323.011 6.60595 322.921 6.72678C322.83 6.84757 322.791 6.9994 322.812 7.14887C322.834 7.29836 322.914 7.43322 323.035 7.52383L326.987 10.4844L323.035 13.4449C322.975 13.4898 322.924 13.546 322.886 13.6103C322.848 13.6747 322.823 13.7459 322.812 13.8199C322.791 13.9693 322.83 14.1212 322.921 14.242C323.011 14.3628 323.147 14.4427 323.296 14.464C323.446 14.4854 323.598 14.4465 323.719 14.3559L327.367 11.623V17.3164C327.367 17.4221 327.396 17.5258 327.452 17.6157C327.508 17.7057 327.587 17.7783 327.682 17.8256C327.777 17.8729 327.883 17.8929 327.988 17.8835C328.094 17.8739 328.194 17.8353 328.279 17.7719L332.839 14.3559C332.91 14.3028 332.967 14.2341 333.007 14.155C333.047 14.0759 333.067 13.9888 333.067 13.9004C333.067 13.812 333.047 13.7248 333.007 13.6458C332.967 13.5667 332.91 13.498 332.839 13.4449ZM328.507 4.79102L331.547 7.06836L328.507 9.3457V4.79102ZM328.507 16.1777V11.623L331.547 13.9004L328.507 16.1777Z" fill="#00F0FF"/>
<path d="M380.417 16.8436H378.662C378.61 16.8436 378.586 16.8185 378.586 16.7681L378.6 6.14087C378.6 6.10061 378.62 6.08047 378.662 6.08047H380.4C380.441 6.08047 380.462 6.10061 380.462 6.14087L380.475 16.7681C380.475 16.8185 380.455 16.8436 380.417 16.8436ZM384.599 16.9947C384.058 16.9947 383.556 16.8537 383.095 16.5717C382.633 16.2897 382.265 15.9171 381.983 15.4538C381.704 14.9906 381.566 14.4795 381.566 13.9206V12.9613C381.566 12.5283 381.649 12.1229 381.814 11.7453C381.983 11.3676 382.203 11.0353 382.482 10.7483C382.255 10.5015 382.076 10.212 381.945 9.87966C381.818 9.54231 381.756 9.18226 381.756 8.79957C381.756 8.27084 381.88 7.78241 382.131 7.33426C382.386 6.89619 382.726 6.54876 383.16 6.29194C383.594 6.03513 384.072 5.90674 384.599 5.90674C385.129 5.90674 385.607 6.03767 386.034 6.29951C386.464 6.56134 386.805 6.91131 387.063 7.34939C387.321 7.78241 387.448 8.26583 387.448 8.79957C387.448 9.18226 387.383 9.53976 387.252 9.8721C387.125 10.1994 386.949 10.4915 386.722 10.7483C387.001 11.0252 387.221 11.355 387.379 11.7377C387.541 12.1204 387.624 12.5283 387.624 12.9613V13.9206C387.624 14.4795 387.486 14.9931 387.214 15.4614C386.935 15.9297 386.571 16.3023 386.116 16.5793C385.665 16.8562 385.156 16.9947 384.599 16.9947ZM384.599 9.83436C384.87 9.83436 385.101 9.73364 385.287 9.53224C385.476 9.3308 385.573 9.0866 385.573 8.79957C385.573 8.51257 385.476 8.26583 385.287 8.05937C385.101 7.85291 384.87 7.74969 384.599 7.74969C384.33 7.74969 384.099 7.85291 383.903 8.05937C383.707 8.26583 383.607 8.51257 383.607 8.79957C383.607 9.07653 383.707 9.31822 383.903 9.52467C384.099 9.73113 384.33 9.83436 384.599 9.83436ZM384.599 15.1442C384.922 15.1442 385.194 15.0258 385.414 14.7892C385.638 14.5525 385.748 14.263 385.748 13.9206V12.9613C385.748 12.629 385.638 12.342 385.414 12.1003C385.194 11.8586 384.922 11.7377 384.599 11.7377C384.282 11.7377 384.007 11.8561 383.779 12.0927C383.556 12.3294 383.442 12.6189 383.442 12.9613V13.9206C383.442 14.2479 383.556 14.5349 383.779 14.7816C384.007 15.0233 384.282 15.1442 384.599 15.1442ZM390.611 12.2513H388.856C388.815 12.2513 388.794 12.2312 388.794 12.1909V10.4386C388.794 10.3983 388.815 10.3782 388.856 10.3782H390.611C390.649 10.3782 390.67 10.3983 390.67 10.4386V12.1909C390.67 12.2312 390.649 12.2513 390.611 12.2513ZM390.611 16.8436H388.856C388.815 16.8436 388.794 16.8235 388.794 16.7832V15.0309C388.794 14.9906 388.815 14.9705 388.856 14.9705H390.611C390.649 14.9705 390.67 14.9906 390.67 15.0309V16.7832C390.67 16.8235 390.649 16.8436 390.611 16.8436ZM395.116 16.9947C394.462 16.9947 393.881 16.8537 393.371 16.5717C392.865 16.2897 392.47 15.9146 392.184 15.4463C391.902 14.973 391.761 14.4543 391.761 13.8904L391.774 8.98839C391.774 8.41436 391.919 7.89825 392.205 7.44C392.487 6.97676 392.883 6.60665 393.385 6.32972C393.891 6.04774 394.466 5.90674 395.116 5.90674C395.784 5.90674 396.362 6.0452 396.858 6.32216C397.35 6.59912 397.739 6.97171 398.021 7.44C398.307 7.90327 398.451 8.41941 398.451 8.98839L398.468 13.8904C398.468 14.4493 398.327 14.9654 398.045 15.4388C397.756 15.9121 397.36 16.2897 396.858 16.5717C396.359 16.8537 395.777 16.9947 395.116 16.9947ZM396.593 13.8904L396.576 8.98839C396.576 8.62587 396.441 8.33128 396.169 8.10468C395.901 7.87811 395.55 7.76481 395.116 7.76481C394.672 7.76481 394.318 7.87811 394.049 8.10468C393.784 8.33128 393.65 8.62587 393.65 8.98839V13.8904C393.65 14.2731 393.784 14.5752 394.049 14.7967C394.318 15.0183 394.672 15.1291 395.116 15.1291C395.55 15.1291 395.904 15.0183 396.176 14.7967C396.452 14.5752 396.593 14.2731 396.593 13.8904ZM402.815 16.9947C402.161 16.9947 401.576 16.8537 401.067 16.5717C400.564 16.2897 400.169 15.9146 399.88 15.4463C399.597 14.973 399.456 14.4543 399.456 13.8904L399.473 8.98839C399.473 8.41436 399.618 7.89825 399.904 7.44C400.186 6.97676 400.578 6.60665 401.084 6.32972C401.587 6.04774 402.165 5.90674 402.815 5.90674C403.48 5.90674 404.061 6.0452 404.553 6.32216C405.049 6.59912 405.438 6.97171 405.72 7.44C406.006 7.90327 406.15 8.41941 406.15 8.98839L406.164 13.8904C406.164 14.4493 406.023 14.9654 405.741 15.4388C405.455 15.9121 405.059 16.2897 404.553 16.5717C404.054 16.8537 403.476 16.9947 402.815 16.9947ZM404.288 13.8904L404.275 8.98839C404.275 8.62587 404.14 8.33128 403.865 8.10468C403.6 7.87811 403.249 7.76481 402.815 7.76481C402.371 7.76481 402.017 7.87811 401.748 8.10468C401.483 8.33128 401.349 8.62587 401.349 8.98839V13.8904C401.349 14.2731 401.483 14.5752 401.748 14.7967C402.017 15.0183 402.371 15.1291 402.815 15.1291C403.249 15.1291 403.603 15.0183 403.875 14.7967C404.151 14.5752 404.288 14.2731 404.288 13.8904Z" fill="#00F0FF"/>
<path d="M258.469 72.1875H154.53C146.927 72.1875 140.764 78.3436 140.764 85.9375V189.75C140.764 197.344 146.927 203.5 154.53 203.5H258.469C266.072 203.5 272.235 197.344 272.235 189.75V85.9375C272.235 78.3436 266.072 72.1875 258.469 72.1875Z" fill="url(#paint8_linear_479_455)"/>
<path d="M216.943 184.171H256.876" stroke="#545454" stroke-width="3" stroke-linecap="round"/>
<path d="M247.709 161.966C247.595 161.966 247.485 162.012 247.404 162.092C247.323 162.174 247.277 162.283 247.277 162.398V166.131L240.821 162.098C240.691 162.017 240.541 161.971 240.388 161.967C240.235 161.963 240.083 161.999 239.948 162.073C239.814 162.147 239.701 162.255 239.623 162.387C239.544 162.519 239.503 162.669 239.502 162.823V171.464C239.503 171.617 239.546 171.767 239.624 171.899C239.703 172.03 239.815 172.138 239.949 172.211C240.084 172.285 240.235 172.322 240.388 172.318C240.541 172.314 240.691 172.27 240.821 172.189L247.277 168.156V171.889C247.277 172.004 247.323 172.113 247.404 172.195C247.485 172.275 247.595 172.321 247.709 172.321C247.824 172.321 247.934 172.275 248.015 172.195C248.096 172.113 248.141 172.004 248.141 171.889V162.398C248.141 162.283 248.096 162.174 248.015 162.092C247.934 162.012 247.824 161.966 247.709 161.966ZM240.366 171.454V162.832L247.269 167.146L240.366 171.454Z" fill="black"/>
<path d="M175.82 162.074C175.685 162 175.533 161.962 175.378 161.967C175.224 161.971 175.074 162.016 174.943 162.098L168.487 166.131V162.398C168.487 162.284 168.441 162.174 168.361 162.093C168.279 162.012 168.17 161.967 168.055 161.967C167.94 161.967 167.831 162.012 167.75 162.093C167.668 162.174 167.623 162.284 167.623 162.398V171.89C167.623 172.004 167.668 172.114 167.75 172.195C167.831 172.276 167.94 172.321 168.055 172.321C168.17 172.321 168.279 172.276 168.361 172.195C168.441 172.114 168.487 172.004 168.487 171.89V168.156L174.943 172.189C175.073 172.271 175.223 172.316 175.376 172.32C175.53 172.325 175.682 172.288 175.816 172.214C175.951 172.141 176.063 172.032 176.142 171.9C176.22 171.768 176.262 171.618 176.262 171.465V162.823C176.262 162.67 176.221 162.52 176.144 162.388C176.066 162.257 175.954 162.148 175.82 162.074ZM175.398 171.458L168.496 167.144L175.398 162.833V171.458Z" fill="black"/>
<path d="M223.144 90.2891H189.857C182.253 90.2891 176.09 96.4451 176.09 104.039V138.207C176.09 145.801 182.253 151.957 189.857 151.957H223.144C230.747 151.957 236.911 145.801 236.911 138.207V104.039C236.911 96.4451 230.747 90.2891 223.144 90.2891Z" fill="url(#paint9_radial_479_455)"/>
<path d="M218.829 105.765C218.686 105.654 218.52 105.577 218.343 105.54C218.166 105.503 217.983 105.506 217.808 105.55L198.763 110.305C198.505 110.369 198.277 110.518 198.113 110.727C197.95 110.936 197.862 111.193 197.862 111.458V127.817C196.869 127.155 195.682 126.842 194.491 126.93C193.3 127.018 192.173 127.501 191.288 128.302C190.403 129.103 189.812 130.177 189.608 131.352C189.404 132.527 189.599 133.736 190.162 134.788C190.725 135.84 191.624 136.674 192.716 137.157C193.808 137.64 195.03 137.745 196.189 137.455C197.347 137.165 198.375 136.496 199.109 135.556C199.844 134.615 200.242 133.456 200.242 132.263V119.52L216.906 115.359V123.062C215.913 122.399 214.727 122.087 213.536 122.175C212.345 122.262 211.218 122.745 210.333 123.546C209.448 124.348 208.857 125.421 208.653 126.596C208.449 127.771 208.644 128.981 209.207 130.033C209.77 131.085 210.669 131.918 211.761 132.402C212.853 132.885 214.075 132.989 215.234 132.699C216.392 132.409 217.42 131.741 218.154 130.8C218.889 129.86 219.287 128.701 219.287 127.508V106.703C219.287 106.522 219.246 106.344 219.166 106.181C219.087 106.019 218.971 105.877 218.829 105.765ZM194.886 135.236C194.297 135.236 193.722 135.062 193.232 134.735C192.743 134.408 192.362 133.944 192.136 133.401C191.911 132.858 191.852 132.26 191.967 131.684C192.082 131.107 192.365 130.578 192.782 130.162C193.198 129.746 193.728 129.463 194.305 129.348C194.882 129.234 195.481 129.293 196.024 129.518C196.568 129.743 197.033 130.124 197.36 130.612C197.687 131.101 197.862 131.676 197.862 132.263C197.862 133.052 197.548 133.808 196.99 134.365C196.432 134.923 195.675 135.236 194.886 135.236ZM200.242 117.068V112.387L216.906 108.226V112.907L200.242 117.068ZM213.931 130.48C213.342 130.48 212.767 130.306 212.277 129.979C211.788 129.653 211.407 129.189 211.181 128.646C210.956 128.102 210.897 127.505 211.012 126.928C211.127 126.352 211.41 125.822 211.826 125.406C212.243 124.991 212.773 124.708 213.35 124.593C213.927 124.478 214.526 124.537 215.07 124.762C215.613 124.987 216.078 125.368 216.405 125.857C216.732 126.345 216.906 126.92 216.906 127.508C216.906 127.899 216.83 128.285 216.68 128.646C216.53 129.006 216.311 129.334 216.035 129.61C215.759 129.886 215.431 130.105 215.07 130.254C214.708 130.403 214.321 130.48 213.931 130.48Z" fill="white"/>
<path d="M155.508 183.656C155.223 183.656 154.992 183.887 154.992 184.171C154.992 184.456 155.223 184.687 155.508 184.687V183.656ZM155.508 184.687H221.244V183.656H155.508V184.687Z" fill="black"/>
<path d="M218.481 187.853C220.347 187.853 221.859 186.411 221.859 184.632C221.859 182.852 220.347 181.41 218.481 181.41C216.614 181.41 215.102 182.852 215.102 184.632C215.102 186.411 216.614 187.853 218.481 187.853Z" fill="black"/>
<path d="M212.599 166.447L204.819 161.905C204.688 161.828 204.538 161.787 204.384 161.784C204.23 161.781 204.078 161.818 203.944 161.89C203.811 161.96 203.701 162.064 203.624 162.189C203.547 162.314 203.506 162.457 203.506 162.602V171.685C203.507 171.903 203.598 172.111 203.761 172.265C203.922 172.418 204.142 172.504 204.37 172.503C204.529 172.503 204.685 172.461 204.821 172.382L212.599 167.84C212.724 167.767 212.827 167.665 212.899 167.543C212.97 167.421 213.008 167.284 213.008 167.144C213.008 167.004 212.97 166.867 212.899 166.745C212.827 166.623 212.724 166.521 212.599 166.448V166.447ZM204.37 171.676V162.608L212.136 167.144L204.37 171.676Z" fill="black"/>
<path d="M360.281 6.26709V16.844" stroke="#00F0FF" stroke-width="6" stroke-linecap="round" stroke-linejoin="round"/>
<path d="M364.518 3.09375V16.8437" stroke="#00F0FF" stroke-width="6" stroke-linecap="round" stroke-linejoin="round"/>
<path d="M356.043 9.43994V16.8438" stroke="#00F0FF" stroke-width="6" stroke-linecap="round" stroke-linejoin="round"/>
<path d="M352.162 12.9653V16.8435" stroke="#00F0FF" stroke-width="6" stroke-linecap="round" stroke-linejoin="round"/>
<path d="M348.984 16.1387V16.8438" stroke="#00F0FF" stroke-width="6" stroke-linecap="round" stroke-linejoin="round"/>
<g filter="url(#filter0_d_479_455)">
<path d="M265.774 50.5483C267.389 50.5483 268.699 49.2402 268.699 47.6265C268.699 46.0128 267.389 44.7046 265.774 44.7046L145.426 44.7046C143.811 44.7046 142.501 46.0128 142.501 47.6265C142.501 49.2402 143.811 50.5483 145.426 50.5483L265.774 50.5483Z" fill="#101010"/>
</g>
<path d="M214.588 50.5312C216.204 50.5312 217.514 49.2231 217.514 47.6094C217.514 45.9957 216.204 44.6875 214.588 44.6875L145.411 44.6875C143.795 44.6875 142.485 45.9957 142.485 47.6094C142.485 49.2231 143.795 50.5313 145.411 50.5313L214.588 50.5312Z" fill="#00F0FF"/>
<path d="M132.848 52.25L132.907 41.9375" stroke="#03C4D0" stroke-width="2" stroke-linecap="round" stroke-linejoin="round"/>
<path d="M155.607 241.742L151.09 237.23L155.607 232.719" stroke="#00F0FF" stroke-width="6" stroke-linecap="round" stroke-linejoin="round"/>
<path d="M205.811 230.511C205.67 230.383 205.486 230.312 205.295 230.312C205.104 230.312 204.92 230.383 204.779 230.511L197.113 237.708C197.034 237.78 196.971 237.867 196.928 237.964C196.885 238.061 196.863 238.166 196.863 238.272V247.082C196.863 247.284 196.944 247.478 197.088 247.621C197.232 247.763 197.427 247.844 197.63 247.844H212.961C213.164 247.844 213.359 247.763 213.503 247.621C213.647 247.478 213.727 247.284 213.727 247.082V238.272C213.727 238.166 213.705 238.061 213.662 237.964C213.619 237.867 213.555 237.78 213.477 237.708L205.811 230.511Z" stroke="#00F0FF" stroke-width="8" stroke-linecap="round" stroke-linejoin="round"/>
<path d="M247.628 230.312H242.466C241.991 230.312 241.605 230.697 241.605 231.172V236.328C241.605 236.803 241.991 237.187 242.466 237.187H247.628C248.104 237.187 248.489 236.803 248.489 236.328V231.172C248.489 230.697 248.104 230.312 247.628 230.312Z" stroke="#00F0FF" stroke-width="6" stroke-linecap="round" stroke-linejoin="round"/>
<path d="M258.296 230.312H253.134C252.659 230.312 252.273 230.697 252.273 231.172V236.328C252.273 236.803 252.659 237.187 253.134 237.187H258.296C258.772 237.187 259.157 236.803 259.157 236.328V231.172C259.157 230.697 258.772 230.312 258.296 230.312Z" stroke="#00F0FF" stroke-width="6" stroke-linecap="round" stroke-linejoin="round"/>
</g>
</g>
<rect x="0.5" y="0.5" width="412" height="229" stroke="#181818"/>
<rect x="0.5" y="0.5" width="412" height="229" stroke="black" stroke-opacity="0.2"/>
<defs>
<filter id="filter0_d_479_455" x="138.5" y="40.7046" width="134.199" height="13.8438" filterUnits="userSpaceOnUse" color-interpolation-filters="sRGB">
<feFlood flood-opacity="0" result="BackgroundImageFix"/>
<feColorMatrix in="SourceAlpha" type="matrix" values="0 0 0 0 0 0 0 0 0 0 0 0 0 0 0 0 0 0 127 0" result="hardAlpha"/>
<feOffset/>
<feGaussianBlur stdDeviation="2"/>
<feComposite in2="hardAlpha" operator="out"/>
<feColorMatrix type="matrix" values="0 0 0 0 0 0 0 0 0 0.94 0 0 0 0 1 0 0 0 1 0"/>
<feBlend mode="normal" in2="BackgroundImageFix" result="effect1_dropShadow_479_455"/>
<feBlend mode="normal" in="SourceGraphic" in2="effect1_dropShadow_479_455" result="shape"/>
</filter>
<radialGradient id="paint0_radial_479_455" cx="0" cy="0" r="1" gradientUnits="userSpaceOnUse" gradientTransform="translate(206.5 -47.4375) rotate(90.4529) scale(478.858 719.295)">
<stop offset="0.00404113" stop-color="#4F4F4F"/>
<stop offset="0.526042"/>
<stop offset="1"/>
</radialGradient>
<linearGradient id="paint1_linear_479_455" x1="74.5123" y1="199.719" x2="57.5078" y2="168.42" gradientUnits="userSpaceOnUse">
<stop stop-color="#020000"/>
<stop offset="0.533934" stop-color="#50854C"/>
<stop offset="1" stop-color="#FDFEFF"/>
</linearGradient>
<radialGradient id="paint2_radial_479_455" cx="0" cy="0" r="1" gradientUnits="userSpaceOnUse" gradientTransform="translate(70.038 184.422) rotate(90) scale(10.8281 20.1337)">
<stop stop-color="white" stop-opacity="0.25"/>
<stop offset="1" stop-color="#00F0FF" stop-opacity="0"/>
</radialGradient>
<linearGradient id="paint3_linear_479_455" x1="70.2104" y1="99.0001" x2="70.2656" y2="166.424" gradientUnits="userSpaceOnUse">
<stop/>
<stop offset="0.520833" stop-color="#315456"/>
<stop offset="1" stop-color="#00F0FF"/>
</linearGradient>
<linearGradient id="paint4_linear_479_455" x1="358.25" y1="189.75" x2="332.22" y2="176.329" gradientUnits="userSpaceOnUse">
<stop offset="0.0521081" stop-color="#A9A9A9"/>
<stop offset="0.526042" stop-color="#00F0FF" stop-opacity="0.49"/>
<stop offset="1" stop-color="#A9A9A9"/>
</linearGradient>
<linearGradient id="paint5_linear_479_455" x1="342.619" y1="178.406" x2="342.619" y2="190.781" gradientUnits="userSpaceOnUse">
<stop stop-color="white"/>
</linearGradient>
<radialGradient id="paint6_radial_479_455" cx="0" cy="0" r="1" gradientUnits="userSpaceOnUse" gradientTransform="translate(342.789 131.742) rotate(90) scale(51.9922 52.0552)">
<stop stop-opacity="0.47"/>
<stop offset="0.13541" stop-color="#42A6AC"/>
<stop offset="0.317712" stop-opacity="0.37"/>
<stop offset="0.458346" stop-color="#20C0CA"/>
<stop offset="0.656274" stop-opacity="0.49"/>
<stop offset="0.817742" stop-color="#22BCC5"/>
<stop offset="1" stop-color="#343333" stop-opacity="0"/>
</radialGradient>
<linearGradient id="paint7_linear_479_455" x1="206.5" y1="-19.0781" x2="206.5" y2="35.4062" gradientUnits="userSpaceOnUse">
<stop/>
<stop offset="1" stop-color="#000303" stop-opacity="0.08"/>
</linearGradient>
<linearGradient id="paint8_linear_479_455" x1="206.5" y1="72.1875" x2="206.5" y2="203.5" gradientUnits="userSpaceOnUse">
<stop/>
<stop offset="0.350679" stop-color="#004656"/>
<stop offset="0.568857" stop-color="#1D6C72"/>
<stop offset="1" stop-color="#00F0FF"/>
</linearGradient>
<radialGradient id="paint9_radial_479_455" cx="0" cy="0" r="1" gradientUnits="userSpaceOnUse" gradientTransform="translate(206.5 121.123) rotate(90) scale(30.8339 30.4105)">
<stop offset="0.140625"/>
<stop offset="0.286458"/>
<stop offset="0.515625"/>
<stop offset="0.651042"/>
<stop offset="0.890625"/>
<stop offset="1"/>
</radialGradient>
<clipPath id="clip0_479_455">
<rect width="413" height="230" fill="white"/>
</clipPath>
</defs>
</svg>
