<svg width="128" height="128" viewBox="0 0 128 128" fill="none" xmlns="http://www.w3.org/2000/svg">
<g clip-path="url(#clip0_485_559)">
<path d="M88 112C103.464 112 116 99.464 116 84C116 68.536 103.464 56 88 56C72.536 56 60 68.536 60 84C60 99.464 72.536 112 88 112Z" stroke="black" stroke-width="3" stroke-miterlimit="10" stroke-linecap="round" stroke-linejoin="round"/>
<path d="M69.1996 63.2L50.3996 35.6C47.1996 30.8 40.7996 30.8 37.5996 35.6L13.5996 71.2C9.59957 76.4 13.5996 84 19.9996 84H59.9996" stroke="black" stroke-width="3" stroke-miterlimit="10" stroke-linecap="round" stroke-linejoin="round"/>
<path d="M60 49.6V28C60 23.6 63.6 20 68 20H100C104.4 20 108 23.6 108 28V60" stroke="black" stroke-width="3" stroke-miterlimit="10" stroke-linecap="round" stroke-linejoin="round"/>
</g>
<defs>
<clipPath id="clip0_485_559">
<rect width="128" height="128" fill="white"/>
</clipPath>
</defs>
</svg>
