<svg width="128" height="128" viewBox="0 0 128 128" fill="none" xmlns="http://www.w3.org/2000/svg">
<g clip-path="url(#clip0_485_553)">
<g clip-path="url(#clip1_485_553)">
<path d="M109.889 27.6667H107.5H97.9448H69.278H59.7225H50.1666H40.6111H28.6668H19.1114C8.57382 27.6667 0 36.2406 0 46.7777V58.722V65.8886V80.2218C0 90.7593 8.57382 99.3331 19.1114 99.3331H109.889C119.213 99.3331 126.986 92.618 128.656 83.7719C128.854 83.4232 129 83.0411 129 82.6111C129 82.4415 128.938 82.2909 128.902 82.131C128.967 81.5029 129 80.8674 129 80.2222V75.4445V46.7777C129 36.2406 120.427 27.6667 109.889 27.6667ZM109.889 94.5558H19.1114C11.2065 94.5558 4.77817 88.1271 4.77817 80.2226V68.6437C6.68917 69.2696 7.98396 70.6505 9.50583 72.294C11.7967 74.7619 14.6516 77.8338 20.1268 77.8338C22.2052 77.8338 23.9014 77.3893 25.3372 76.7063C29.7231 81.1569 35.1816 85.0004 43.7937 85.0004C55.239 85.0004 61.1157 78.2159 66.3041 72.2317C66.3686 72.1574 66.4284 72.0885 66.4929 72.0164C68.454 69.9069 70.105 68.2779 73.3587 68.2779C76.7533 68.2779 78.3968 70.0479 80.48 72.2936C82.7709 74.7615 85.6232 77.8333 91.101 77.8333C96.581 77.8333 99.4359 74.7611 101.729 72.2936C102.164 71.8254 102.579 71.3857 102.997 70.9702C103.366 71.3906 103.731 71.8039 104.103 72.2339C108.79 77.6401 114.055 83.6814 123.463 84.8019C121.544 90.4633 116.191 94.5558 109.889 94.5558ZM4.77773 46.7777C4.77773 39.6897 9.95426 33.8034 16.7221 32.6593V49.1665C16.7221 50.4877 17.7924 51.5554 19.1109 51.5554C20.4294 51.5554 21.4998 50.4877 21.4998 49.1665V32.4445H26.278V41.9999C26.278 43.3211 27.3483 44.3888 28.6668 44.3888C29.9853 44.3888 31.0557 43.3211 31.0557 41.9999V32.4445H38.2223V49.1665C38.2223 50.4877 39.2926 51.5554 40.6111 51.5554C41.9296 51.5554 43 50.4877 43 49.1665V32.4445H47.7777V41.9999C47.7777 43.3211 48.8481 44.3888 50.1666 44.3888C51.4851 44.3888 52.5555 43.3211 52.5555 41.9999V32.4445H57.3332V49.1665C57.3332 50.4877 58.4035 51.5554 59.7221 51.5554C61.0406 51.5554 62.1109 50.4877 62.1109 49.1665V32.4445H66.8886V41.9999C66.8886 43.3211 67.959 44.3888 69.2775 44.3888C70.596 44.3888 71.6664 43.3211 71.6664 41.9999V32.4445H76.4441V51.5558C76.4441 52.877 77.5145 53.9447 78.833 53.9447C80.1515 53.9447 81.2218 52.877 81.2218 51.5558V32.4445H85.9996V44.3888C85.9996 45.7099 87.0699 46.7777 88.3884 46.7777C89.7069 46.7777 90.7773 45.7099 90.7773 44.3888V32.4445H95.555V49.1665C95.555 50.4877 96.6254 51.5554 97.9439 51.5554C99.2624 51.5554 100.333 50.4877 100.333 49.1665V32.4445H105.11V41.9999C105.11 43.3211 106.181 44.3888 107.499 44.3888C108.818 44.3888 109.888 43.3211 109.888 41.9999V32.4445C117.793 32.4445 124.221 38.8732 124.221 46.7777V72.6924C122.306 72.0665 121.008 70.6856 119.482 69.0421C117.189 66.572 114.334 63.4997 108.854 63.4997C106.78 63.4997 105.087 63.9416 103.653 64.6223C99.2672 60.1718 93.8087 56.3327 85.2015 56.3327C73.9138 56.3327 68.042 62.9331 62.9037 68.8554C62.8462 68.9152 62.7864 68.9797 62.7293 69.0395C60.6488 71.2852 59.0026 73.0552 55.608 73.0552C52.2133 73.0552 50.5698 71.2852 48.4866 69.0395C46.1931 66.5716 43.3435 63.4997 37.8656 63.4997C32.3904 63.4997 29.5356 66.572 27.2447 69.0395C26.8147 69.5028 26.4036 69.9403 25.9903 70.351C25.627 69.9355 25.2643 69.527 24.8962 69.0992C20.0851 63.5476 14.6692 57.3174 4.77685 56.4451C4.77773 56.4456 4.77773 46.7777 4.77773 46.7777ZM99.7433 67.475C99.2057 68.0007 98.702 68.5335 98.2289 69.0421C96.1436 71.2852 94.4974 73.0556 91.1006 73.0556C87.7085 73.0556 86.0624 71.2856 83.9818 69.0399C82.0085 66.9137 79.6055 64.3505 75.4796 63.6767C78.1311 62.1074 81.2082 61.1087 85.2024 61.1087C91.8411 61.1113 96.0074 63.7773 99.7433 67.475ZM53.509 77.659C50.8575 79.2261 47.7852 80.2222 43.7932 80.2222C37.1497 80.2222 32.9834 77.5514 29.2448 73.8488C29.7776 73.3257 30.2792 72.7978 30.7474 72.2936C32.8279 70.0479 34.4714 68.2779 37.8661 68.2779C41.2607 68.2779 42.9043 70.0479 44.9848 72.2936C46.9634 74.422 49.369 76.9927 53.509 77.659ZM21.285 72.2317C21.4664 72.4394 21.6504 72.652 21.8345 72.8624C21.3114 72.977 20.7571 73.0561 20.1264 73.0561C16.7344 73.0561 15.0904 71.286 13.0077 69.0404C11.08 66.9642 8.73414 64.48 4.77773 63.7395V61.2839C12.434 62.1074 16.5885 66.8109 21.285 72.2317ZM107.713 69.1018C107.531 68.8915 107.345 68.6789 107.161 68.4689C107.682 68.3565 108.232 68.2779 108.855 68.2779C112.252 68.2779 113.898 70.0479 115.983 72.2936C117.913 74.3719 120.264 76.8565 124.222 77.5971V80.0527C116.566 79.2261 112.409 74.5226 107.713 69.1018Z" fill="#010002"/>
</g>
</g>
<defs>
<clipPath id="clip0_485_553">
<rect width="128" height="128" fill="white"/>
</clipPath>
<clipPath id="clip1_485_553">
<rect width="129" height="129" fill="white" transform="translate(0 -1)"/>
</clipPath>
</defs>
</svg>
