<svg width="128" height="128" viewBox="0 0 128 128" fill="none" xmlns="http://www.w3.org/2000/svg">
<g clip-path="url(#clip0_490_968)">
<path d="M117.677 24.7742H114.564C110.976 20.2735 93.1923 0 64 0C34.8077 0 17.024 20.2735 13.4359 24.7742H10.3226C4.63071 24.7742 0 29.4049 0 35.0968V101.161C0 106.853 4.63071 111.484 10.3226 111.484H39.2258V123.871H26.8387V128H101.161V123.871H88.7742V111.484H117.677C123.369 111.484 128 106.853 128 101.161V35.0968C128 29.4049 123.369 24.7742 117.677 24.7742ZM64 4.12903C90.0232 4.12903 106.804 21.9665 110.904 26.8408C106.814 31.7192 90.081 49.5484 64 49.5484C37.9768 49.5484 21.1964 31.711 17.0963 26.8366C21.1861 21.9582 37.919 4.12903 64 4.12903ZM91.103 76.1105C93.8323 80.0289 95.6449 84.4119 96.4872 89.1375L96.7886 90.8387H105.29V94.9677H86.7097C86.7097 82.4464 76.5213 72.2581 64 72.2581C51.4787 72.2581 41.2903 82.4464 41.2903 94.9677H22.7097V90.8387H31.2114L31.5128 89.1375C32.3551 84.4139 34.1677 80.031 36.897 76.1105L37.8859 74.6921L31.8823 68.6906L37.7228 62.8501L43.7244 68.8537L45.1427 67.8648C49.0612 65.1355 53.4441 63.3228 58.1698 62.4805L59.871 62.1791V53.6774H68.129V62.1791L69.8302 62.4805C74.5538 63.3228 78.9368 65.1355 82.8573 67.8648L84.2756 68.8537L90.2772 62.8501L96.1177 68.6906L90.1141 74.6921L91.103 76.1105ZM82.5806 94.9677H45.4194C45.4194 84.7215 53.7538 76.3871 64 76.3871C74.2462 76.3871 82.5806 84.7215 82.5806 94.9677ZM4.12903 35.0968C4.12903 31.6821 6.90787 28.9032 10.3226 28.9032H13.4359C16.671 32.9621 31.457 49.8415 55.7419 53.1179V58.7603C51.6377 59.6872 47.7791 61.2852 44.2302 63.521L37.7249 57.0137L26.0459 68.6926L32.5533 75.1979C30.3174 78.7468 28.7215 82.6054 27.7925 86.7097H18.5806V94.9677H4.12903V35.0968ZM84.6452 123.871H43.3548V111.484H84.6452V123.871ZM123.871 101.161C123.871 104.576 121.092 107.355 117.677 107.355H10.3226C6.90787 107.355 4.12903 104.576 4.12903 101.161V99.0968H123.871V101.161ZM123.871 94.9677H109.419V86.7097H100.207C99.2805 82.6054 97.6826 78.7468 95.4467 75.1979L101.954 68.6926L90.2751 57.0137L83.7698 63.521C80.2209 61.2852 76.3623 59.6893 72.2581 58.7603V53.1179C96.543 49.8415 111.329 32.9621 114.564 28.9032H117.677C121.092 28.9032 123.871 31.6821 123.871 35.0968V94.9677Z" fill="black"/>
<path d="M66.0646 86.7097H61.9355V90.8387H66.0646V86.7097Z" fill="black"/>
<path d="M74.3224 86.7097H70.1934V90.8387H74.3224V86.7097Z" fill="black"/>
<path d="M57.8068 86.7097H53.6777V90.8387H57.8068V86.7097Z" fill="black"/>
<path d="M63.9996 45.4193C74.2458 45.4193 82.5802 37.0849 82.5802 26.8387C82.5802 16.5925 74.2458 8.25806 63.9996 8.25806C53.7534 8.25806 45.4189 16.5925 45.4189 26.8387C45.4189 37.0849 53.7534 45.4193 63.9996 45.4193ZM63.9996 12.3871C71.9666 12.3871 78.4512 18.8717 78.4512 26.8387C78.4512 34.8057 71.9666 41.2903 63.9996 41.2903C56.0326 41.2903 49.548 34.8057 49.548 26.8387C49.548 18.8717 56.0326 12.3871 63.9996 12.3871Z" fill="black"/>
<path d="M64.0003 35.0967C68.5546 35.0967 72.2583 31.393 72.2583 26.8386C72.2583 22.2843 68.5546 18.5806 64.0003 18.5806C59.4459 18.5806 55.7422 22.2843 55.7422 26.8386C55.7422 31.393 59.4459 35.0967 64.0003 35.0967ZM64.0003 22.7096C66.2774 22.7096 68.1293 24.5615 68.1293 26.8386C68.1293 29.1158 66.2774 30.9677 64.0003 30.9677C61.7231 30.9677 59.8712 29.1158 59.8712 26.8386C59.8712 24.5615 61.7231 22.7096 64.0003 22.7096Z" fill="black"/>
<path d="M92.9034 24.7742H88.7744V28.9032H92.9034V24.7742Z" fill="black"/>
<path d="M88.7745 14.4517H84.6455V18.5807H88.7745V14.4517Z" fill="black"/>
<path d="M88.7745 35.0967H84.6455V39.2257H88.7745V35.0967Z" fill="black"/>
<path d="M39.2257 24.7742H35.0967V28.9032H39.2257V24.7742Z" fill="black"/>
<path d="M43.3546 14.4517H39.2256V18.5807H43.3546V14.4517Z" fill="black"/>
<path d="M43.3546 35.0967H39.2256V39.2257H43.3546V35.0967Z" fill="black"/>
</g>
<defs>
<clipPath id="clip0_490_968">
<rect width="128" height="128" fill="white"/>
</clipPath>
</defs>
</svg>
