<svg width="128" height="128" viewBox="0 0 128 128" fill="none" xmlns="http://www.w3.org/2000/svg">
<g clip-path="url(#clip0_488_880)">
<path d="M64 77C60.8355 77 57.7421 77.9384 55.1109 79.6965C52.4797 81.4546 50.4289 83.9534 49.2179 86.8771C48.0069 89.8007 47.6901 93.0178 48.3074 96.1215C48.9248 99.2251 50.4487 102.076 52.6863 104.314C54.9239 106.551 57.7749 108.075 60.8786 108.693C63.9823 109.31 67.1993 108.993 70.1229 107.782C73.0466 106.571 75.5454 104.52 77.3035 101.889C79.0616 99.2579 80 96.1645 80 93C79.9971 88.7574 78.3105 84.6894 75.3106 81.6895C72.3106 78.6895 68.2426 77.0029 64 77Z" fill="black"/>
<path d="M30.1399 59.1719C28.6439 60.6762 27.8067 62.7131 27.8125 64.8346C27.8184 66.9562 28.6667 68.9885 30.171 70.4845C31.6753 71.9805 33.7122 72.8177 35.8338 72.8119C37.9553 72.806 39.9876 71.9576 41.4836 70.4534C47.5129 64.5919 55.5903 61.3128 63.9992 61.3128C72.4081 61.3128 80.4855 64.5919 86.5148 70.4534C87.2559 71.204 88.1392 71.7993 89.1131 72.2045C90.087 72.6098 91.1319 72.8167 92.1867 72.8134C93.7668 72.813 95.3113 72.3448 96.6256 71.4677C97.9399 70.5906 98.965 69.344 99.5717 67.885C100.178 66.426 100.339 64.8201 100.035 63.2697C99.7297 61.7193 98.9725 60.294 97.8586 59.1734C79.7023 40.8907 48.2961 40.8907 30.1399 59.1719Z" fill="black"/>
<path d="M120.36 36.7031C113.016 29.1992 104.249 23.2372 94.5707 19.1669C84.8927 15.0966 74.4993 13 64.0002 13C53.5011 13 43.1077 15.0966 33.4298 19.1669C23.7518 23.2372 14.984 29.1992 7.64088 36.7031C6.14904 38.2115 5.31751 40.2508 5.32922 42.3723C5.34094 44.4938 6.19494 46.5237 7.70335 48.0156C9.21176 49.5074 11.251 50.3389 13.3725 50.3272C15.494 50.3155 17.524 49.4615 19.0158 47.9531C43.1721 23.5156 84.8283 23.5156 108.985 47.9531C110.476 49.4615 112.506 50.3155 114.628 50.3272C116.749 50.3389 118.789 49.5074 120.297 48.0156C121.805 46.5237 122.659 44.4938 122.671 42.3723C122.683 40.2508 121.851 38.2115 120.36 36.7031Z" fill="black"/>
</g>
<defs>
<clipPath id="clip0_488_880">
<rect width="128" height="128" fill="white"/>
</clipPath>
</defs>
</svg>
