<svg width="128" height="128" viewBox="0 0 128 128" fill="none" xmlns="http://www.w3.org/2000/svg">
<path d="M67.5809 42.21C67.2491 41.5444 66.7384 40.9845 66.106 40.5931C65.4736 40.2017 64.7446 39.9943 64.0009 39.9943C63.2572 39.9943 62.5282 40.2017 61.8958 40.5931C61.2634 40.9845 60.7526 41.5444 60.4209 42.21L24.4209 114.21C23.9461 115.159 23.8678 116.257 24.203 117.264C24.5382 118.271 25.2596 119.103 26.2084 119.578C27.1572 120.052 28.2557 120.131 29.2623 119.795C30.2689 119.46 31.1011 118.739 31.5759 117.79L38.5009 104H89.5509L96.4459 117.79C96.7765 118.451 97.2837 119.007 97.9112 119.397C98.5387 119.787 99.262 119.996 100.001 120C100.683 120 101.353 119.825 101.948 119.493C102.544 119.161 103.044 118.682 103.402 118.102C103.76 117.521 103.964 116.859 103.995 116.178C104.025 115.497 103.881 114.82 103.576 114.21L67.5809 42.21ZM64.0009 52.9451L77.5309 80.0001H50.4709L64.0009 52.9451ZM42.5009 96.0001L46.5009 88.0001H81.5509L85.5509 96.0001H42.5009ZM79.7709 46.87C80.1829 44.5669 80.0847 42.2014 79.4834 39.9403C78.882 37.6792 77.792 35.5775 76.2903 33.7833C74.7886 31.9891 72.9116 30.5461 70.7917 29.556C68.6718 28.5658 66.3606 28.0527 64.0209 28.0527C61.6812 28.0527 59.3699 28.5658 57.25 29.556C55.1301 30.5461 53.2532 31.9891 51.7514 33.7833C50.2497 35.5775 49.1598 37.6792 48.5584 39.9403C47.957 42.2014 47.8589 44.5669 48.2709 46.87C48.3776 47.3921 48.3789 47.9303 48.2748 48.4529C48.1707 48.9755 47.9632 49.472 47.6645 49.9133C47.3658 50.3546 46.982 50.7317 46.5355 51.0226C46.089 51.3135 45.589 51.5123 45.0646 51.6072C44.5403 51.7022 44.0022 51.6914 43.4821 51.5755C42.962 51.4596 42.4703 51.241 42.0358 50.9324C41.6014 50.6239 41.2329 50.2317 40.9522 49.7787C40.6714 49.3258 40.484 48.8214 40.4009 48.295C39.7739 44.8371 39.914 41.2836 40.8113 37.8858C41.7086 34.4879 43.3412 31.3286 45.5936 28.631C47.8461 25.9334 50.6635 23.7634 53.8468 22.2744C57.0301 20.7853 60.5015 20.0135 64.0159 20.0135C67.5302 20.0135 71.0017 20.7853 74.185 22.2744C77.3682 23.7634 80.1856 25.9334 82.4381 28.631C84.6906 31.3286 86.3231 34.4879 87.2204 37.8858C88.1177 41.2836 88.2578 44.8371 87.6309 48.295C87.4646 49.2168 86.9802 50.051 86.262 50.6522C85.5439 51.2534 84.6375 51.5835 83.7009 51.585C83.4612 51.583 83.222 51.5613 82.9859 51.5201C82.4674 51.4284 81.972 51.2353 81.5284 50.9517C81.0847 50.6682 80.7013 50.2999 80.4003 49.8679C80.0993 49.4358 79.8865 48.9486 79.7742 48.4342C79.6619 47.9198 79.6523 47.3882 79.7459 46.87H79.7709ZM32.0759 68.1051C27.5939 62.1677 24.8564 55.0982 24.171 47.6908C23.4856 40.2833 24.8795 32.8315 28.1959 26.1726C31.5124 19.5137 36.6201 13.9116 42.9451 9.99574C49.2701 6.07986 56.5618 4.00537 64.0009 4.00537C71.44 4.00537 78.7316 6.07986 85.0566 9.99574C91.3816 13.9116 96.4893 19.5137 99.8058 26.1726C103.122 32.8315 104.516 40.2833 103.831 47.6908C103.145 55.0982 100.408 62.1677 95.9259 68.1051C95.2796 68.933 94.3337 69.4735 93.2923 69.6099C92.2509 69.7463 91.1977 69.4676 90.36 68.8341C89.5223 68.2006 88.9674 67.263 88.8151 66.2239C88.6628 65.1847 88.9252 64.1273 89.5459 63.2801C93.1298 58.5298 95.3182 52.8744 95.8653 46.949C96.4124 41.0237 95.2965 35.0632 92.643 29.737C89.9894 24.4109 85.9033 19.9301 80.8437 16.7981C75.7841 13.6661 69.9514 12.0069 64.0009 12.0069C58.0503 12.0069 52.2176 13.6661 47.158 16.7981C42.0984 19.9301 38.0123 24.4109 35.3588 29.737C32.7052 35.0632 31.5893 41.0237 32.1364 46.949C32.6835 52.8744 34.8719 58.5298 38.4559 63.2801C39.0765 64.1273 39.339 65.1847 39.1867 66.2239C39.0344 67.263 38.4794 68.2006 37.6418 68.8341C36.8041 69.4676 35.7508 69.7463 34.7094 69.6099C33.6681 69.4735 32.7221 68.933 32.0759 68.1051Z" fill="#181818"/>
</svg>
