<svg width="128" height="128" viewBox="0 0 128 128" fill="none" xmlns="http://www.w3.org/2000/svg">
<path d="M96.2492 85.735C101.307 81.4861 105.348 76.1567 108.074 70.1392C110.8 64.1218 112.141 57.5695 111.999 50.965C111.499 28.11 93.1942 9.26504 70.3792 8.06503C64.4925 7.74463 58.6015 8.61045 53.056 10.6111C47.5105 12.6117 42.4236 15.7064 38.0974 19.7113C33.7712 23.7161 30.2939 28.5496 27.872 33.9245C25.4502 39.2994 24.1331 45.1062 23.9992 51L12.7742 72.59C12.7292 72.68 12.6842 72.77 12.6442 72.86C11.8394 74.7358 11.782 76.8482 12.4838 78.7648C13.1856 80.6815 14.5934 82.2574 16.4192 83.17L16.5442 83.225L27.9992 88.47V104C27.9992 106.122 28.842 108.157 30.3423 109.657C31.8426 111.157 33.8774 112 35.9992 112H59.9992C61.06 112 62.0774 111.579 62.8276 110.828C63.5777 110.078 63.9992 109.061 63.9992 108C63.9992 106.939 63.5777 105.922 62.8276 105.172C62.0774 104.421 61.06 104 59.9992 104H35.9992V85.905C35.9997 85.1383 35.7799 84.3876 35.366 83.7423C34.952 83.0969 34.3613 82.5842 33.6642 82.265L19.9992 76L31.5342 53.83C31.8348 53.2666 31.9944 52.6387 31.9992 52C31.998 43.8417 34.7679 35.925 39.8551 29.547C44.9422 23.169 52.0448 18.708 59.9992 16.895V24.69C57.3303 25.6336 55.0809 27.4903 53.6486 29.932C52.2163 32.3736 51.6933 35.243 52.172 38.033C52.6507 40.8229 54.1002 43.3539 56.2645 45.1785C58.4288 47.003 61.1684 48.0037 63.9992 48.0037C66.8299 48.0037 69.5695 47.003 71.7338 45.1785C73.8981 43.3539 75.3476 40.8229 75.8263 38.033C76.305 35.243 75.782 32.3736 74.3497 29.932C72.9174 27.4903 70.668 25.6336 67.9992 24.69V16C68.6492 16 69.2991 16 69.9492 16.05C77.0425 16.4564 83.8587 18.9451 89.5451 23.205C95.2314 27.4649 99.5356 33.3068 101.919 40H91.9992C91.4124 39.9998 90.8327 40.1287 90.3013 40.3776C89.7699 40.6264 89.2997 40.9892 88.9242 41.44L76.1692 56.75C73.509 55.7588 70.584 55.7403 67.9115 56.6977C65.239 57.6551 62.9911 59.5268 61.5656 61.9818C60.14 64.4367 59.6285 67.3167 60.1216 70.1124C60.6146 72.9081 62.0805 75.4393 64.2599 77.2584C66.4393 79.0775 69.1918 80.0673 72.0306 80.0527C74.8694 80.0381 77.6116 79.0201 79.7721 77.1786C81.9327 75.3372 83.3724 72.791 83.8367 69.9904C84.301 67.1897 83.7599 64.3152 82.3092 61.875L93.8742 48H103.769C103.889 49.04 103.962 50.09 103.989 51.15C104.114 56.8792 102.874 62.5559 100.372 67.7114C97.8698 72.8669 94.1772 77.3532 89.5992 80.8C89.035 81.2229 88.5927 81.7874 88.317 82.4363C88.0413 83.0852 87.942 83.7954 88.0292 84.495L92.0292 116.495C92.1509 117.461 92.6207 118.35 93.3507 118.994C94.0806 119.638 95.0205 119.994 95.9942 119.995C96.1613 119.995 96.3282 119.985 96.4942 119.965C97.0155 119.9 97.519 119.733 97.9759 119.474C98.4327 119.214 98.8339 118.867 99.1566 118.452C99.4793 118.038 99.7172 117.564 99.8566 117.057C99.996 116.55 100.034 116.021 99.9692 115.5L96.2492 85.735ZM63.9992 40C63.208 40 62.4347 39.7654 61.7769 39.3259C61.1191 38.8864 60.6064 38.2617 60.3036 37.5308C60.0009 36.7999 59.9217 35.9956 60.076 35.2197C60.2304 34.4438 60.6113 33.731 61.1707 33.1716C61.7301 32.6122 62.4429 32.2312 63.2188 32.0769C63.9947 31.9226 64.799 32.0018 65.5299 32.3045C66.2608 32.6073 66.8855 33.12 67.325 33.7778C67.7646 34.4356 67.9992 35.2089 67.9992 36C67.9992 37.0609 67.5777 38.0783 66.8276 38.8285C66.0774 39.5786 65.06 40 63.9992 40ZM71.9992 72C71.208 72 70.4347 71.7654 69.7769 71.3259C69.1191 70.8864 68.6064 70.2617 68.3036 69.5308C68.0009 68.7999 67.9217 67.9956 68.076 67.2197C68.2304 66.4437 68.6113 65.731 69.1707 65.1716C69.7301 64.6122 70.4429 64.2312 71.2188 64.0769C71.9947 63.9226 72.799 64.0018 73.5299 64.3045C74.2608 64.6073 74.8855 65.12 75.325 65.7778C75.7646 66.4355 75.9992 67.2089 75.9992 68C75.9992 69.0609 75.5777 70.0783 74.8276 70.8285C74.0774 71.5786 73.06 72 71.9992 72Z" fill="#181818"/>
</svg>
