<svg width="128" height="128" viewBox="0 0 128 128" fill="none" xmlns="http://www.w3.org/2000/svg">
<path d="M85.9992 34C85.9992 29.6488 84.709 25.3953 82.2916 21.7775C79.8742 18.1596 76.4383 15.3398 72.4183 13.6747C68.3983 12.0095 63.9748 11.5739 59.7073 12.4227C55.4397 13.2716 51.5197 15.3669 48.4429 18.4437C45.3661 21.5204 43.2709 25.4404 42.422 29.708C41.5731 33.9756 42.0088 38.3991 43.6739 42.419C45.339 46.439 48.1588 49.875 51.7767 52.2923C55.3946 54.7097 59.6481 56 63.9992 56C69.832 55.9934 75.4239 53.6734 79.5483 49.5491C83.6727 45.4247 85.9926 39.8327 85.9992 34ZM63.9992 48C61.2303 48 58.5236 47.1789 56.2213 45.6406C53.919 44.1022 52.1246 41.9157 51.0649 39.3576C50.0053 36.7994 49.7281 33.9845 50.2683 31.2687C50.8084 28.553 52.1418 26.0585 54.0998 24.1005C56.0577 22.1426 58.5522 20.8092 61.268 20.269C63.9837 19.7288 66.7986 20.0061 69.3568 21.0657C71.915 22.1253 74.1015 23.9197 75.6398 26.222C77.1782 28.5243 77.9992 31.2311 77.9992 34C77.9992 37.713 76.5243 41.274 73.8987 43.8995C71.2732 46.525 67.7123 48 63.9992 48ZM103.999 112C103.999 113.061 103.578 114.078 102.828 114.828C102.078 115.579 101.06 116 99.9993 116H27.9993C27.1868 116 26.3937 115.752 25.7254 115.29C25.0571 114.828 24.5454 114.174 24.2582 113.414C23.971 112.654 23.9221 111.824 24.1179 111.036C24.3137 110.248 24.7449 109.537 25.3542 109L74.3892 65.73C69.9786 64.2129 65.2896 63.6784 60.6507 64.1638C56.0118 64.6492 51.535 66.1429 47.534 68.5402C43.533 70.9375 40.1043 74.1804 37.4883 78.042C34.8722 81.9035 33.1319 86.2902 32.3892 90.895C32.1792 91.9024 31.589 92.7901 30.7414 93.3736C29.8937 93.957 28.8538 94.1913 27.8378 94.0278C26.8218 93.8643 25.9079 93.3155 25.2861 92.4955C24.6644 91.6755 24.3825 90.6474 24.4993 89.625C25.487 83.502 27.885 77.6926 31.5038 72.6557C35.1227 67.6188 39.8633 63.4924 45.351 60.6025C50.8388 57.7127 56.9234 56.1385 63.1241 56.0045C69.3248 55.8704 75.4717 57.1801 81.0793 59.83L93.3543 49C94.1527 48.3181 95.1871 47.9775 96.2345 48.0517C97.2818 48.1259 98.258 48.6088 98.9523 49.3964C99.6467 50.1839 100.004 51.2129 99.9459 52.2613C99.8883 53.3097 99.4208 54.2933 98.6442 55L38.5793 108H99.9993C101.06 108 102.078 108.421 102.828 109.172C103.578 109.922 103.999 110.939 103.999 112ZM96.8643 73.19C101.523 79.8828 104.014 87.8453 103.999 96C103.999 97.0609 103.578 98.0783 102.828 98.8284C102.078 99.5786 101.06 100 99.9993 100C98.9384 100 97.921 99.5786 97.1708 98.8284C96.4207 98.0783 95.9993 97.0609 95.9993 96C96.0116 89.4775 94.0201 83.1086 90.2943 77.755C89.6889 76.8838 89.4544 75.8077 89.6424 74.7636C89.8304 73.7195 90.4255 72.7929 91.2968 72.1875C92.168 71.5822 93.244 71.3477 94.2881 71.5357C95.3322 71.7237 96.2589 72.3188 96.8643 73.19Z" fill="#181818"/>
</svg>
