<svg width="128" height="128" viewBox="0 0 128 128" fill="none" xmlns="http://www.w3.org/2000/svg">
<path d="M64.0004 16.1499C37.6154 16.1499 16.1504 37.6149 16.1504 63.9999C16.1504 90.3849 37.6154 111.85 64.0004 111.85C90.3854 111.85 111.85 90.3849 111.85 63.9999C111.85 37.6149 90.3854 16.1499 64.0004 16.1499ZM64.0004 107.85C39.8204 107.85 20.1504 88.1799 20.1504 63.9999C20.1504 39.8199 39.8204 20.1499 64.0004 20.1499C88.1804 20.1499 107.85 39.8199 107.85 63.9999C107.85 88.1799 88.1804 107.85 64.0004 107.85ZM98.0329 44.4424C87.2504 25.6749 63.2079 19.1924 44.4429 29.9674C25.8854 40.6299 19.3329 64.2499 29.6129 82.9249L29.6379 82.9674C29.7454 83.1649 29.8554 83.3624 29.9679 83.5574C35.1549 92.5834 43.7149 99.1792 53.765 101.894C63.8151 104.608 74.5319 103.219 83.5579 98.0324C92.5839 92.8454 99.1796 84.2853 101.894 74.2353C104.609 64.1852 103.22 53.4684 98.0329 44.4424ZM46.4354 33.4424C63.2904 23.7574 84.8804 29.5899 94.5654 46.4424C98.4176 53.1109 99.96 60.8648 98.9529 68.4999L77.3279 60.6299C76.8978 57.8335 75.4858 55.2816 73.345 53.4318C71.2043 51.5819 68.4746 50.5549 65.6454 50.5349H62.3354C59.5061 50.5549 56.7765 51.5819 54.6357 53.4318C52.495 55.2816 51.083 57.8335 50.6529 60.6299L29.0379 68.4999C28.1554 61.5908 29.3364 54.575 32.4321 48.3355C35.5278 42.0961 40.4 36.9117 46.4354 33.4349V33.4424ZM95.6579 79.4999L77.4554 72.8749V64.9374L98.2054 72.4849C98.1479 72.7199 98.0879 72.9549 98.0254 73.1874C97.4362 75.3612 96.6435 77.4747 95.6579 79.4999ZM32.3354 79.4999C31.238 77.2637 30.3816 74.9172 29.7804 72.4999L50.5304 64.9524V72.8874L32.3354 79.4999ZM34.3229 83.0349L50.8054 77.0349C51.37 79.5611 52.748 81.8323 54.7279 83.4999C55.2017 83.8948 55.5835 84.3885 55.8464 84.9465C56.1094 85.5044 56.2473 86.1131 56.2504 86.7299V98.3724C47.2045 96.3472 39.324 90.8324 34.3229 83.0274V83.0349ZM60.2604 99.0349C60.2604 99.0199 60.2604 99.0024 60.2604 98.9874V86.7374C60.2574 85.5372 59.9917 84.3522 59.4821 83.2656C58.9725 82.179 58.2312 81.2171 57.3104 80.4474C56.4385 79.7154 55.7373 78.8015 55.2562 77.7697C54.7751 76.7379 54.5256 75.6133 54.5254 74.4749V62.1349C54.595 60.1054 55.4467 58.1814 56.9024 56.7654C58.358 55.3494 60.3047 54.551 62.3354 54.5374H65.6454C67.6769 54.5511 69.6244 55.3501 71.0801 56.7672C72.5359 58.1842 73.387 60.1095 73.4554 62.1399C73.4554 62.2099 73.4554 62.2799 73.4554 62.3474V74.4749C73.4543 75.6116 73.205 76.7344 72.7248 77.7647C72.2446 78.7951 71.5452 79.7081 70.6754 80.4399C69.7542 81.2095 69.0126 82.1713 68.5025 83.2579C67.9925 84.3445 67.7264 85.5296 67.7229 86.7299V98.8574C67.7229 98.9224 67.7229 98.9874 67.7229 99.0524C65.2386 99.3137 62.7336 99.3087 60.2504 99.0374L60.2604 99.0349ZM81.5654 94.5624C78.4969 96.3302 75.1785 97.6231 71.7229 98.3974V86.7299C71.7268 86.1127 71.8655 85.5039 72.1293 84.9459C72.3932 84.388 72.7758 83.8945 73.2504 83.4999C75.2307 81.8317 76.6088 79.5595 77.1729 77.0324L93.6729 83.0324C90.6272 87.7975 86.473 91.7544 81.5654 94.5649V94.5624ZM71.7179 63.9999C71.7174 62.4706 71.2633 60.9759 70.4131 59.7047C69.5628 58.4336 68.3547 57.4432 66.9414 56.8589C65.5282 56.2746 63.9734 56.1226 62.4737 56.4222C60.9741 56.7217 59.597 57.4594 58.5167 58.5418C57.4363 59.6242 56.7014 61.0027 56.4047 62.503C56.1081 64.0032 56.2631 65.5577 56.8501 66.9698C57.4372 68.3819 58.4299 69.5881 59.7027 70.4359C60.9755 71.2837 62.4711 71.7349 64.0004 71.7324C66.0482 71.7271 68.0103 70.9103 69.4569 69.4609C70.9035 68.0114 71.7166 66.0477 71.7179 63.9999ZM64.0004 67.7324C63.2622 67.7349 62.54 67.5183 61.925 67.11C61.31 66.7018 60.83 66.1203 60.5457 65.4391C60.2614 64.7579 60.1856 64.0076 60.3279 63.2833C60.4702 62.559 60.8242 61.8932 61.3451 61.3702C61.866 60.8472 62.5303 60.4905 63.2541 60.3453C63.9778 60.2001 64.7283 60.2729 65.4107 60.5544C66.093 60.836 66.6765 61.3137 67.0872 61.927C67.4979 62.5404 67.7174 63.2618 67.7179 63.9999C67.7179 64.9872 67.3267 65.9343 66.63 66.6339C65.9332 67.3334 64.9877 67.7284 64.0004 67.7324Z" fill="black"/>
</svg>
