<svg width="128" height="128" viewBox="0 0 128 128" fill="none" xmlns="http://www.w3.org/2000/svg">
<path d="M89.7187 67.0222C89.719 67.0214 89.719 67.0205 89.7192 67.0195C90.1917 65.0235 90.4315 62.9669 90.4315 60.9077V56.1627H95.1755C96.6725 56.1627 97.8862 54.9487 97.8862 53.452V42.6087C97.8862 41.1117 96.6722 39.8979 95.1755 39.8979H32.826C31.329 39.8979 30.1152 41.1119 30.1152 42.6087V53.452C30.1152 54.9489 31.3292 56.1627 32.826 56.1627H37.57V60.9077C37.57 62.9672 37.8097 65.0237 38.2822 67.0195C38.2825 67.0202 38.2825 67.0214 38.2827 67.0222C39.402 71.7452 41.812 76.0714 45.2517 79.5332C46.9817 81.2744 48.934 82.7539 51.046 83.9437C42.8665 88.5242 37.57 97.2289 37.57 106.992V111.735H32.826C31.329 111.735 30.1152 112.949 30.1152 114.446V125.289C30.1152 126.786 31.3292 128 32.826 128H95.1755C96.6725 128 97.8862 126.786 97.8862 125.289V114.446C97.8862 112.949 96.6722 111.735 95.1755 111.735H90.4315V106.992C90.4315 97.2292 85.135 88.5244 76.956 83.9437C79.068 82.7539 81.0197 81.2744 82.7502 79.5332C86.1895 76.0712 88.5995 71.7449 89.7187 67.0222ZM35.537 50.7407V45.3189H92.4647V50.7407H35.537ZM42.9917 60.9074V56.1634H85.0097V60.9074C85.0097 61.8667 84.9447 62.8247 84.815 63.7727L84.8172 63.7739C80.5955 64.0259 77.997 64.7179 75.477 65.3907C72.5232 66.1797 69.733 66.9249 64.0005 66.9249C58.268 66.9249 55.4777 66.1797 52.524 65.3907C50.0042 64.7177 47.4057 64.0259 43.1837 63.7739L43.186 63.7727C43.0567 62.8249 42.9917 61.8669 42.9917 60.9074ZM42.9917 106.992C42.9917 97.4704 49.324 89.2102 58.4547 86.7257L61.29 87.1457V98.1924L47.8282 111.735H42.9917V106.992ZM64.0007 103.155L72.529 111.735H55.4725L64.0007 103.155ZM92.4645 117.156V122.578H35.537V117.156H92.4645ZM85.0097 106.992V111.735H80.1732L66.7115 98.1924V87.1457L69.5467 86.7257C78.6775 89.2102 85.0097 97.4702 85.0097 106.992ZM69.0012 81.3164L64.0007 82.066C64.0007 82.066 59.0277 81.3232 59.0002 81.3164C52.6507 79.7645 47.3677 75.2337 44.7617 69.3434C47.3727 69.6269 49.2117 70.1182 51.1252 70.6292C54.2872 71.4739 57.557 72.3474 64.001 72.3474C70.445 72.3474 73.7147 71.4739 76.8767 70.6292C78.79 70.1182 80.629 69.6269 83.2402 69.3434C80.6337 75.2334 75.3507 79.7645 69.0012 81.3164Z" fill="#181818"/>
<path d="M62.4975 30.8729C61.2015 30.1244 59.5433 30.5684 58.7945 31.8652L58.6958 32.0362C57.947 33.3324 58.3913 34.9904 59.688 35.7392C60.1148 35.9857 60.581 36.1029 61.0408 36.1029C61.9775 36.1029 62.8888 35.6167 63.391 34.7469L63.4898 34.5759C64.2383 33.2797 63.794 31.6217 62.4975 30.8729Z" fill="#181818"/>
<path d="M57.1681 20.6758L65.8758 17.3745L62.8856 22.8173C62.1648 24.1295 62.6441 25.7775 63.9561 26.4985C64.3703 26.726 64.8178 26.8338 65.2591 26.8338C66.2161 26.8338 67.1438 26.3258 67.6373 25.4278L74.1706 13.537C74.7173 12.5415 74.5856 11.3108 73.8408 10.4538C73.0956 9.59627 71.8958 9.29477 70.8333 9.69702L61.7746 13.1313L66.4203 3.93377C67.0953 2.59727 66.5593 0.967018 65.2231 0.291768C63.8863 -0.383232 62.2563 0.152768 61.5811 1.48902L53.7873 16.9185C53.2831 17.9173 53.4436 19.1228 54.1918 19.9538C54.9401 20.7855 56.1223 21.072 57.1681 20.6758Z" fill="#181818"/>
</svg>
