<svg width="128" height="128" viewBox="0 0 128 128" fill="none" xmlns="http://www.w3.org/2000/svg">
<g clip-path="url(#clip0_440_37)">
<path d="M126.249 47.7365C124.52 46.4131 122.37 46.3646 120.299 46.7012C120.175 46.7216 120.053 46.7536 119.935 46.7884C119.017 46.1356 118.115 45.4578 117.2 44.7971C117.387 42.87 117.571 40.9427 117.756 39.0169C117.787 38.6935 117.766 38.3757 117.701 38.0753C117.701 37.511 117.494 36.9325 116.983 36.4363C114.102 33.6323 111.092 30.9704 108.064 28.3282C107.951 28.0269 107.768 27.7329 107.497 27.4632L90.1483 10.2185C89.6755 9.29439 88.6684 8.62796 87.3928 9.00373C81.1731 10.8325 76.4155 15.0248 73.3376 20.6758C73.318 20.7124 73.3103 20.7473 73.293 20.7844C72.7612 21.4818 72.5768 22.4489 73.1424 23.4091C75.2706 27.0211 77.502 30.7811 79.9591 34.3549C73.4594 39.7063 66.6767 44.7587 59.8359 49.7517C61.0512 50.7831 62.1684 51.863 63.2424 52.9637C69.8474 48.1357 76.3905 43.2473 82.6651 38.0789C83.9146 39.6831 85.2215 41.2199 86.6126 42.6456C81.2494 48.4413 75.9623 54.3394 70.6425 60.2124C71.8044 61.1533 73.0562 62.0464 74.4693 62.8539C79.6478 57.1341 84.8 51.3931 90.0229 45.7488C94.6511 49.5088 100.098 52.0244 106.81 52.2098C107.733 53.4677 108.692 54.7002 109.612 55.9593C109.046 57.0149 108.651 58.1564 108.744 59.3683C108.875 61.1094 109.725 62.4598 110.981 63.6266C111.245 63.8701 111.518 64.0297 111.794 64.1267C112.301 64.4553 112.942 64.6036 113.67 64.4189C117.981 63.3352 121.996 60.8368 125.003 57.5741C127.26 55.1242 129.773 50.4365 126.249 47.7365ZM113.595 59.6236C113.168 58.8608 113.574 58.1234 114.191 57.238C114.907 56.2066 114.988 54.8748 113.963 53.9842C113.913 53.9404 113.853 53.9084 113.795 53.8677C112.604 52.2013 111.304 50.6144 110.122 48.9396C109.475 48.0248 108.166 47.7597 106.879 47.6346C106.071 47.5567 105.272 47.5355 104.653 47.444C102.541 47.1358 100.429 46.7257 98.4622 45.8697C93.7579 43.8248 89.6077 39.8283 86.518 35.8116C84.8429 33.6351 83.3447 31.3189 81.8635 29.0075C81.1354 27.8701 80.4203 26.7235 79.7262 25.5644C79.4982 25.184 77.6057 22.5083 77.7785 22.2117C80.0246 18.3363 83.2178 15.5009 87.334 13.9078C88.2766 14.8443 89.2185 15.7813 90.1614 16.7177C93.7695 20.3062 97.3684 23.9058 101.007 27.4634C103.075 29.4862 105.156 31.4966 107.241 33.5008C108.321 34.5394 109.403 35.5759 110.483 36.6124C110.783 36.8992 113.196 38.793 113.134 39.15L112.563 45.0826C112.548 45.2337 112.579 45.3761 112.585 45.5252C112.407 46.5173 112.961 47.4203 113.828 47.9913C115.499 49.0928 117.022 50.4024 118.696 51.505C120.153 52.4649 121.724 50.4494 123.256 51.3322C123.531 53.7929 114.161 60.6364 113.595 59.6236Z" fill="black"/>
<path d="M51.1623 85.084C50.584 84.31 49.8748 83.5925 49.1264 83.0212C47.632 84.5065 46.1357 85.9877 44.6132 87.4415C44.6068 87.4296 44.604 87.4165 44.5988 87.4046C42.0961 82.6625 38.7662 78.5489 34.8172 74.9774C34.6921 74.8175 34.5781 74.6537 34.4538 74.4966C34.4427 74.4822 34.4321 74.4744 34.4215 74.4613C36.3723 72.8963 38.3451 71.3548 40.3325 69.8319C39.4636 68.5771 38.6254 67.2858 37.829 65.9473C26.1855 74.8386 15.053 84.2979 5.57438 95.5596C5.38534 95.7848 5.26206 96.0179 5.17102 96.2511C4.86927 96.7421 4.80041 97.3722 5.15606 98.0938C8.22335 104.312 12.9289 109.436 19.2845 112.363C19.735 112.571 20.1624 112.618 20.5567 112.565C21.0491 112.637 21.5855 112.538 22.1165 112.166C32.8976 104.608 42.6753 95.9248 51.962 86.709C51.9141 86.6345 51.8617 86.5584 51.8225 86.481C51.5976 86.0191 51.3836 85.549 51.1623 85.084ZM20.3723 107.735C15.9464 105.448 12.3965 101.871 10.0137 97.497C16.3085 90.1828 23.3132 83.6371 30.6917 77.4974C31.0014 77.7633 31.2764 78.0526 31.5784 78.3253C34.7878 82.4992 37.7743 86.8393 40.1494 91.5512C40.1548 91.5631 40.1625 91.5708 40.169 91.5814C33.8905 97.3253 27.3515 102.779 20.3723 107.735Z" fill="black"/>
<path d="M92.1283 85.1877C85.9587 78.8607 79.1641 73.0826 72.5178 67.1711C72.1524 66.8474 71.7898 66.5227 71.4269 66.198C70.281 65.1726 69.147 64.1353 68.0166 63.0962C65.2727 60.5705 62.5946 57.9878 60.0266 55.3058C58.9749 54.2069 57.9239 53.1103 56.9168 51.9727C56.8977 51.9518 56.876 51.9381 56.8577 51.9185C56.7463 51.8011 56.6292 51.7024 56.5075 51.6178C54.9515 50.0672 53.4567 48.5224 52.0658 47.0288C51.834 46.7794 51.6047 46.5071 51.3736 46.2536C49.1301 43.8032 46.9025 41.2218 44.7487 38.5331C43.5557 37.044 42.3567 35.4916 41.1832 33.922C41.0849 33.791 40.8556 33.5119 40.5565 33.1498C40.1394 32.6456 39.0276 31.2993 38.495 30.5344C40.428 23.7649 38.9889 17.5743 34.4949 13.4548C29.7865 9.13714 23.0314 7.23431 15.4317 8.03382C13.9727 8.18624 12.8941 9.22174 12.6865 10.6689C12.4908 12.0303 13.1141 13.4328 14.1881 14.2174C14.5894 14.7624 15.1513 15.1709 15.8232 15.3994C18.9343 16.4581 22.1958 17.908 22.7859 20.6235C23.2096 22.571 20.9891 24.4994 20.2981 25.043C18.5524 26.4177 15.9612 26.9874 13.8154 26.4442C10.4293 25.5937 8.5355 22.008 7.65604 19.7351C7.59982 18.9688 7.29136 18.2521 6.75698 17.671C6.08513 16.9404 5.14016 16.5218 4.16656 16.5218C2.71557 16.5218 1.51528 17.451 1.10856 18.8909L1.06884 19.0439C1.03944 19.1403 1.01777 19.2234 1.01519 19.2502C-1.11821 27.1532 0.134957 34.3419 4.54723 39.4874C7.28569 42.6818 11.0679 44.3698 15.484 44.3698C17.6226 44.3698 19.8935 43.9667 22.1233 43.1963C25.4171 46.9491 28.8975 50.5322 32.2743 54.0068L34.5315 56.3341C35.2046 57.0302 35.8535 57.7407 36.4934 58.4611C37.9738 60.1251 39.3954 61.8551 40.8559 63.6478C40.9763 63.7972 41.0955 63.9406 41.218 64.0904L42.7399 65.9566C42.8781 66.1243 43.0378 66.263 43.2093 66.3863C43.4254 66.6496 43.6382 66.9155 43.853 67.1799C46.9778 71.0472 49.9456 75.1123 52.8883 79.2182C53.7984 80.4887 54.7068 81.7627 55.6157 83.036C57.0643 85.0644 58.5179 87.0893 59.9905 89.0942C69.3866 101.882 79.6095 113.815 94.85 119.984C95.4865 120.24 96.0758 120.17 96.5604 119.917C96.8761 119.879 97.2034 119.744 97.5217 119.461C102.77 114.818 107.65 107.764 104.091 100.599C101.189 94.7558 96.6507 89.8251 92.1283 85.1877ZM35.16 51.2031C31.5068 47.4423 27.7292 43.5561 24.2462 39.5047L23.2942 38.3985L21.948 38.9602C19.7725 39.868 17.537 40.3465 15.4856 40.3465C12.2331 40.3465 9.58235 39.1776 7.60291 36.8681C3.63011 32.2345 3.69227 26.4223 4.42189 22.4155C6.35954 26.6679 9.30613 29.4589 12.8358 30.3448C16.1644 31.1805 20.0887 30.3291 22.7892 28.2011C25.9166 25.7376 27.3475 22.6626 26.7187 19.767C25.6817 15.003 20.7998 12.8938 17.9847 11.8895C23.6633 11.7116 28.3139 13.2451 31.7765 16.4194C36.685 20.9186 35.2699 27.4643 34.4332 30.073C34.0175 31.3695 34.6357 32.2987 37.4559 35.7137C37.6976 36.0056 37.8843 36.2285 37.9614 36.3332C39.1617 37.9368 40.3888 39.5235 41.6095 41.0485C43.5404 43.4609 45.5346 45.7697 47.5421 48.0027C48.0693 48.5892 48.591 49.1976 49.1197 49.7681C50.3997 51.1453 51.7638 52.5627 53.1828 53.9869C52.9922 54.3222 52.7157 54.7256 52.3892 55.1655C50.5759 57.6022 46.9869 61.3032 45.1823 62.4996C45.0827 62.3882 44.9793 62.2882 44.8712 62.2051L44.3389 61.5536C44.2556 61.4515 44.1713 61.3481 44.088 61.246C42.8536 59.7295 41.5878 58.1926 40.2764 56.6787C39.3523 55.6125 38.4094 54.5558 37.4252 53.5361L35.16 51.2031ZM95.5138 115.891C82.0062 110.063 72.6107 99.4459 64.0686 87.9365C62.1611 85.367 60.2961 82.7544 58.4371 80.1402C57.5309 78.8646 56.6254 77.5888 55.7175 76.3173C53.1008 72.6529 50.4606 69.0304 47.6992 65.5638C49.6237 64.2294 51.8226 62.0581 53.6347 59.9562C54.5802 58.8593 55.4065 57.7944 56.0404 56.8757C56.2898 57.139 56.5276 57.4109 56.7798 57.6727C59.5438 60.5328 62.4592 63.2607 65.4275 65.9386C66.5669 66.9679 67.7112 67.992 68.8612 69.0095C70.2062 70.2 71.5538 71.3879 72.8988 72.573C75.8508 75.1753 78.7883 77.7853 81.6196 80.4778C86.811 85.4139 92.136 90.4312 96.4947 96.141C101.884 103.206 102.985 109.119 95.5138 115.891Z" fill="black"/>
</g>
<defs>
<clipPath id="clip0_440_37">
<rect width="128" height="128" fill="white"/>
</clipPath>
</defs>
</svg>
