<svg width="128" height="128" viewBox="0 0 128 128" fill="none" xmlns="http://www.w3.org/2000/svg">
<g clip-path="url(#clip0_485_611)">
<path d="M64 0C28.656 0 0 28.656 0 64C0 99.344 28.656 128 64 128C99.344 128 128 99.344 128 64C128 28.656 99.344 0 64 0ZM64 4.16C97.0453 4.16 123.835 30.9493 123.835 64C123.835 97.0453 97.0507 123.835 64 123.835C30.9493 123.835 4.16533 97.0453 4.16533 64C4.16533 30.9547 30.9547 4.16 64 4.16ZM60.384 7.52C58.624 7.59467 56.864 7.744 55.0933 7.936L54.5227 23.6373C55.7785 23.4248 57.0415 23.2576 58.3093 23.136L58.6827 12.5333L58.6133 11.8027L58.8427 12.496L62.384 20.4373H65.616L69.1573 12.5013L69.3707 11.8027L69.3173 12.5333L69.6907 23.136C70.928 23.2533 72.2133 23.424 73.4773 23.6373L72.896 7.936C71.1376 7.73785 69.3731 7.59911 67.6053 7.52L64.1227 16.1867L64 16.8267L63.8773 16.1867L60.384 7.52ZM96.096 17.248L87.8667 30.1973C88.9067 30.9973 90.2773 32.176 91.1573 32.9813L98.9067 28.96L99.3973 28.592L99.0293 29.0933L95.0187 36.8427C95.888 37.776 97.1413 39.2853 97.8453 40.2027L110.805 31.968C110.011 30.9398 109.193 29.9298 108.352 28.9387L100.144 34.3467L99.584 34.8373L100 34.224L103.627 26.992L101.067 24.432L93.8347 28.0587L93.2213 28.4747L93.7067 27.9093L99.136 19.7013C98.176 18.8907 97.264 18.1493 96.096 17.248ZM29.3333 20.1867C27.4133 20.384 25.9307 21.696 21.904 26.1867C20.5077 27.7691 19.1613 29.3947 17.8667 31.0613L28.928 41.552C32.592 37.4987 34.08 35.9947 36.9707 32.9493C39.0133 30.7893 40.1707 28.3093 38.1227 25.9253C37.0133 24.6347 35.1467 24.352 33.5893 24.992L33.44 25.0453L33.4933 24.9067C33.6857 24.199 33.6653 23.4503 33.4349 22.7542C33.2044 22.058 32.774 21.4451 32.1973 20.992C31.7965 20.676 31.337 20.4426 30.8454 20.3052C30.3538 20.1679 29.8399 20.1241 29.3333 20.1867ZM29.3653 23.4667C30.0907 23.2693 30.8427 23.7867 31.008 24.5333C31.1787 25.28 30.7093 25.984 30.1867 26.5707C29.0133 27.904 24.688 32.4267 24.688 32.4267L22.544 30.384C24.768 27.664 27.136 25.1893 28.208 24.208C28.5296 23.8727 28.9263 23.6186 29.3653 23.4667ZM64 26.0427C54.6048 26.0385 45.5422 29.5203 38.5667 35.8141C31.5911 42.1079 27.1988 50.7659 26.24 60.112V60.1227C25.6373 66.0522 26.4385 72.0404 28.5787 77.603C30.7189 83.1656 34.1381 88.1466 38.5598 92.143C42.9815 96.1395 48.2816 99.0393 54.0316 100.608C59.7816 102.177 65.82 102.37 71.6587 101.173C80.2169 99.4141 87.9055 94.7542 93.425 87.9812C98.9445 81.2081 101.956 72.7372 101.952 64C101.942 53.938 97.9403 44.2911 90.8249 37.1767C83.7095 30.0623 74.062 26.0618 64 26.0533V26.0427ZM34.4693 27.3333C34.72 27.3333 34.9813 27.4027 35.216 27.5627C35.6853 27.8773 35.8987 28.416 35.7813 28.9493C35.6427 29.584 35.1147 30.1813 34.688 30.6453L29.1147 36.6187L26.8747 34.4853C26.8747 34.4853 31.072 30.048 32.448 28.624C32.992 28.0587 33.344 27.7173 33.7173 27.5307C33.9486 27.4106 34.2089 27.3432 34.4693 27.3333ZM64 31.0293C68.3312 31.0244 72.6207 31.8739 76.6231 33.5291C80.6255 35.1843 84.2622 37.6127 87.3247 40.6753C90.3873 43.7379 92.8157 47.3745 94.4709 51.3769C96.1261 55.3793 96.9756 59.6688 96.9707 64H64V96.9707C59.6688 96.9756 55.3793 96.1261 51.3769 94.4709C47.3745 92.8157 43.7379 90.3873 40.6753 87.3247C37.6127 84.2622 35.1843 80.6255 33.5291 76.6231C31.8739 72.6207 31.0244 68.3312 31.0293 64H64V31.0293Z" fill="black"/>
</g>
<defs>
<clipPath id="clip0_485_611">
<rect width="128" height="128" fill="white"/>
</clipPath>
</defs>
</svg>
