<svg width="128" height="128" viewBox="0 0 128 128" fill="none" xmlns="http://www.w3.org/2000/svg">
<g clip-path="url(#clip0_485_600)">
<path fill-rule="evenodd" clip-rule="evenodd" d="M63.9767 1.90283C29.6677 1.90283 1.85547 29.7164 1.85547 64.0241C1.85547 98.3325 29.6684 126.145 63.9767 126.145C98.2838 126.145 126.098 98.3325 126.098 64.0241C126.098 29.717 98.2838 1.90283 63.9767 1.90283ZM63.9767 120.576C32.7438 120.576 7.42522 95.2571 7.42522 64.0241C7.42522 32.7925 32.7438 7.47325 63.9767 7.47325C95.2084 7.47325 120.528 32.7925 120.528 64.0241C120.528 95.2571 95.2084 120.576 63.9767 120.576Z" fill="#181818"/>
<path fill-rule="evenodd" clip-rule="evenodd" d="M51.5957 21.7728C55.6179 20.5986 59.787 20.0044 63.9771 20.0083C68.2704 20.0083 72.421 20.6233 76.3445 21.7695L63.9771 49.1833L51.5957 21.7728Z" fill="#181818"/>
<path fill-rule="evenodd" clip-rule="evenodd" d="M87.6029 26.8804C92.2378 29.8373 96.2818 33.6312 99.528 38.0683L79.2293 82.9876L71.3963 65.5704H56.5552L48.7229 82.9869L28.4534 38.0265C31.6935 33.607 35.7263 29.8277 40.3467 26.881L56.5552 62.839H71.4468L87.6029 26.8804ZM21.4472 52.6319C20.4564 56.348 19.956 60.1778 19.959 64.0238C19.959 81.2736 29.8799 96.2044 44.3272 103.424L21.4472 52.6319Z" fill="#181818"/>
<path fill-rule="evenodd" clip-rule="evenodd" d="M51.7988 106.335C55.7579 107.47 59.8569 108.045 63.9756 108.041C68.1953 108.041 72.2755 107.446 76.1378 106.339L63.9756 79.3288L51.7988 106.335ZM83.6222 103.424C98.0702 96.2047 107.991 81.2739 107.991 64.0241C107.991 60.1192 107.482 56.3332 106.529 52.7285L83.6222 103.424Z" fill="#181818"/>
</g>
<defs>
<clipPath id="clip0_485_600">
<rect width="128" height="128" fill="white"/>
</clipPath>
</defs>
</svg>
