<svg width="128" height="128" viewBox="0 0 128 128" fill="none" xmlns="http://www.w3.org/2000/svg">
<g clip-path="url(#clip0_485_608)">
<path fill-rule="evenodd" clip-rule="evenodd" d="M22.3596 44C10.098 44 -0.204113 54.1224 0.00307164 66.362C0.206426 78.3736 10.1611 88 22.3611 88C27.5996 88 32.4243 86.2252 36.2406 83.248C40.0572 86.2248 44.882 88 50.1208 88C55.3592 88 60.184 86.2252 64.0004 83.248C67.8168 86.2248 72.6416 88 77.8804 88C83.1192 88 87.944 86.2252 91.76 83.248C95.5768 86.2248 100.402 88 105.64 88C117.839 88 127.794 78.3752 127.997 66.362C128.204 54.1216 117.902 44 105.64 44C100.444 44 95.6012 45.8168 91.76 48.8416C87.918 45.8168 83.0744 44 77.8792 44C72.684 44 67.8412 45.8168 63.9996 48.8416C60.1584 45.8168 55.3152 44 50.12 44C44.9248 44 40.0816 45.8168 36.2402 48.842C32.3986 45.8168 27.555 44 22.3596 44ZM50.1208 83.0072C46.282 83.0072 42.7332 81.7764 39.8618 79.6928C42.8284 76.0268 44.6324 71.4048 44.7176 66.362C44.8064 61.1064 42.958 56.2416 39.8491 52.4008C42.744 50.266 46.312 48.9928 50.12 48.9928C53.9284 48.9928 57.496 50.266 60.3908 52.4004C57.2816 56.2416 55.4328 61.1072 55.5212 66.3624C55.6072 71.4048 57.4116 76.0272 60.3788 79.6932C57.5076 81.7768 53.9592 83.0072 50.1208 83.0072ZM39.654 66.2788C39.7189 62.4408 38.4307 58.8596 36.2402 55.9632C34.0498 58.8596 32.7616 62.4408 32.8265 66.2788C32.8891 69.9772 34.1492 73.3856 36.2405 76.1472C38.3314 73.3856 39.5913 69.9776 39.654 66.2788ZM27.7628 66.362C27.6739 61.1064 29.5223 56.2416 32.6313 52.4008C29.7364 50.266 26.1681 48.9928 22.3596 48.9928C12.8916 48.9928 4.9074 56.8648 5.06676 66.2788C5.2238 75.5564 12.9156 83.0072 22.3611 83.0072C26.1993 83.0072 29.7481 81.7768 32.6193 79.6928C29.6522 76.0268 27.8482 71.4048 27.7628 66.362ZM72.4772 66.362C72.5664 61.1064 70.718 56.2416 67.6088 52.4004C70.5032 50.266 74.0712 48.9928 77.8792 48.9928C81.6876 48.9928 85.256 50.266 88.1512 52.4008C85.042 56.2416 83.1936 61.1064 83.2824 66.362C83.3676 71.4048 85.1716 76.0268 88.1388 79.6928C85.2676 81.7768 81.7188 83.0072 77.8804 83.0072C74.042 83.0072 70.4932 81.7764 67.6216 79.6928C70.5884 76.0268 72.392 71.4048 72.4772 66.362ZM88.346 66.2788C88.2812 62.4408 89.5696 58.8592 91.76 55.9628C93.9508 58.8592 95.2388 62.4408 95.1736 66.2788C95.1108 69.9776 93.8508 73.3856 91.76 76.1472C89.6688 73.3856 88.4088 69.9772 88.346 66.2788ZM105.64 83.0072C101.802 83.0072 98.2528 81.7764 95.3812 79.6928C98.348 76.0272 100.152 71.4052 100.237 66.3624C100.327 61.106 98.4784 56.2412 95.3692 52.4004C98.2636 50.266 101.832 48.9928 105.64 48.9928C115.108 48.9928 123.093 56.864 122.933 66.2788C122.776 75.558 115.084 83.0072 105.64 83.0072ZM67.4136 66.396C67.4784 62.558 66.1904 58.9768 63.9996 56.0804C61.8092 58.9768 60.5212 62.558 60.586 66.396C60.6488 70.0944 61.9088 73.5028 64 76.2644C66.0908 73.5028 67.3508 70.0948 67.4136 66.396Z" fill="black"/>
</g>
<defs>
<clipPath id="clip0_485_608">
<rect width="128" height="128" fill="white"/>
</clipPath>
</defs>
</svg>
