<svg width="128" height="128" viewBox="0 0 128 128" fill="none" xmlns="http://www.w3.org/2000/svg">
<path d="M63.8788 97.0226C99.1735 97.0226 127.758 82.3443 127.758 64.2577C127.758 46.171 99.1735 31.4775 63.8788 31.4775C28.5993 31.4775 0 46.1559 0 64.2425C0 82.3291 28.5993 97.0226 63.8788 97.0226ZM75.876 80.9204C74.8308 83.3743 72.9827 88.661 68.7867 90.7514C67.4992 91.3573 65.9086 91.6754 64.5302 91.7209C64.2121 91.7663 64 91.7209 63.9243 91.7209C52.124 91.7209 41.1569 90.1152 31.9621 87.2977C31.8864 87.2522 31.6743 87.1765 31.6743 87.1765C30.7503 86.8887 30.311 86.4948 30.311 86.0101C30.311 85.6011 30.5079 85.283 30.8412 84.9649C30.9624 84.8437 31.1593 84.6771 31.4017 84.4347C33.4921 82.6624 39.9451 78.0271 51.9271 73.3767C56.1685 71.771 61.44 69.7564 66.969 68.5748C70.2409 67.9538 82.2533 66.1512 75.876 80.9204ZM108.217 47.913C108.414 47.504 108.747 47.1556 109.307 47.1556C109.626 47.1102 109.989 47.2011 110.595 47.5949C118.093 52.2151 122.577 57.9864 122.577 64.2425C122.577 75.558 108.065 85.2527 87.343 89.5093C86.0099 89.7971 85.1314 89.7971 84.8133 89.4335C84.6163 89.1912 84.5254 88.873 84.8133 88.4338C84.9344 88.1914 85.1011 87.9945 85.3737 87.7067C96.6741 74.3765 105.293 54.6993 107.702 48.9885C107.853 48.519 108.035 48.1554 108.217 47.913ZM52.0786 47.4738C53.1238 45.0198 54.9718 39.7332 59.1678 37.6427C60.4554 37.0065 62.0459 36.7187 63.4244 36.6733C63.7425 36.6733 63.9849 36.6733 64.0606 36.6733C75.8154 36.6733 86.7976 38.3244 95.9773 41.0965C96.053 41.0965 96.2651 41.1722 96.3408 41.2177C97.1891 41.5055 97.6284 41.8993 97.6284 42.384C97.6284 42.8233 97.386 43.1111 97.0982 43.4293C96.977 43.5504 96.7801 43.7474 96.5378 43.9594C94.4019 45.7317 88.0398 50.367 76.0123 54.9568C71.7709 56.608 66.4994 58.5772 60.9704 59.8042C57.6985 60.4555 45.7013 62.2733 52.0786 47.4738ZM40.5056 38.9758C41.8386 38.688 42.8838 38.688 43.1564 39.0515C43.3534 39.2484 43.4443 39.612 43.1564 40.0513C43.0353 40.2936 42.8686 40.4906 42.6263 40.8087C31.3108 54.1388 22.7067 73.816 20.2982 79.4813C20.1013 79.8903 19.9347 80.2842 19.768 80.5265C19.5257 80.9355 19.2076 81.2536 18.6774 81.2839C18.3896 81.2839 17.9957 81.2082 17.3444 80.8446C9.84615 76.2245 5.22604 70.4532 5.22604 64.1971C5.28663 52.927 19.7983 43.2172 40.5056 38.9758Z" fill="black"/>
<path d="M63.8788 31.4775C28.5993 31.4775 0 46.1104 0 64.1971C0 82.2837 28.5993 96.9166 63.8788 96.9166C99.1735 96.9166 127.758 82.2382 127.758 64.1971C127.758 46.1104 99.1735 31.4775 63.8788 31.4775ZM108.277 85.5708C96.4772 91.6148 80.7233 94.9625 63.894 94.9625C47.0646 94.9625 31.3411 91.5997 19.5408 85.5708C8.17988 79.7237 1.95408 72.1649 1.95408 64.2274C1.95408 56.2898 8.21018 48.7159 19.556 42.8688C31.3562 36.7793 47.1101 33.4771 63.9394 33.4771C80.7688 33.4771 96.5075 36.8096 108.323 42.8688C119.699 48.7159 125.925 56.2898 125.925 64.2122C125.925 72.1346 119.653 79.7237 108.277 85.5708Z" fill="black"/>
</svg>
