<svg width="128" height="128" viewBox="0 0 128 128" fill="none" xmlns="http://www.w3.org/2000/svg">
<g clip-path="url(#clip0_485_614)">
<path d="M93.76 7.2C84.8 2.56 74.72 0 64 0C53.28 0 43.2 2.56 34.24 7.2C13.92 17.92 0 39.36 0 64C0 88.64 13.92 110.08 34.4 120.8C43.2 125.28 53.28 128 64 128C74.72 128 84.64 125.28 93.6 120.64C114.08 110.08 128 88.64 128 64C128 39.36 114.08 17.92 93.76 7.2ZM6.4 64C6.4 43.04 17.6 24.8 34.4 14.56C42.56 9.6 52 6.72 62.4 6.4L55.2 58.72L34.4 74.88L13.28 91.36C8.96 83.2 6.4 73.92 6.4 64ZM93.76 113.28C84.96 118.56 74.88 121.6 64 121.6C53.12 121.6 42.88 118.56 34.24 113.28C26.4 108.64 20 102.24 15.2 94.56L34.24 86.72L64 74.56L93.76 86.56L112.96 94.4C108.16 102.24 101.44 108.64 93.76 113.28ZM93.76 74.88L73.12 58.88L65.76 6.4C75.84 6.72 85.44 9.6 93.6 14.56C110.4 24.64 121.6 43.04 121.6 64C121.6 73.92 119.2 83.2 114.72 91.36L93.76 74.88Z" fill="black"/>
</g>
<defs>
<clipPath id="clip0_485_614">
<rect width="128" height="128" fill="white"/>
</clipPath>
</defs>
</svg>
