<svg width="24" height="24" viewBox="0 0 24 24" fill="none" xmlns="http://www.w3.org/2000/svg">
<path d="M4 19C3.45 19 2.97917 18.8042 2.5875 18.4125C2.19583 18.0208 2 17.55 2 17V5C2 4.45 2.19583 3.97917 2.5875 3.5875C2.97917 3.19583 3.45 3 4 3H20C20.55 3 21.0208 3.19583 21.4125 3.5875C21.8042 3.97917 22 4.45 22 5V17C22 17.55 21.8042 18.0208 21.4125 18.4125C21.0208 18.8042 20.55 19 20 19H16V20C16 20.2833 15.9042 20.5208 15.7125 20.7125C15.5208 20.9042 15.2833 21 15 21H9C8.71667 21 8.47917 20.9042 8.2875 20.7125C8.09583 20.5208 8 20.2833 8 20V19H4ZM4 17H20V5H4V17ZM6 16C6.28333 16 6.52083 15.9042 6.7125 15.7125C6.90417 15.5208 7 15.2833 7 15C7 14.7167 6.90417 14.4792 6.7125 14.2875C6.52083 14.0958 6.28333 14 6 14C5.71667 14 5.47917 14.0958 5.2875 14.2875C5.09583 14.4792 5 14.7167 5 15C5 15.2833 5.09583 15.5208 5.2875 15.7125C5.47917 15.9042 5.71667 16 6 16ZM12.275 16C12.475 16 12.6458 15.9292 12.7875 15.7875C12.9292 15.6458 13 15.475 13 15.275C13 13.2583 12.2917 11.5417 10.875 10.125C9.45833 8.70833 7.74167 8 5.725 8C5.525 8 5.35417 8.07083 5.2125 8.2125C5.07083 8.35417 5 8.525 5 8.725C5 8.925 5.07083 9.09583 5.2125 9.2375C5.35417 9.37917 5.525 9.45 5.725 9.45C7.34167 9.45 8.71667 10.0167 9.85 11.15C10.9833 12.2833 11.55 13.6583 11.55 15.275C11.55 15.475 11.6208 15.6458 11.7625 15.7875C11.9042 15.9292 12.075 16 12.275 16ZM9.275 16C9.475 16 9.64583 15.9292 9.7875 15.7875C9.92917 15.6458 10 15.475 10 15.275C10 14.0917 9.58333 13.0833 8.75 12.25C7.91667 11.4167 6.90833 11 5.725 11C5.525 11 5.35417 11.0708 5.2125 11.2125C5.07083 11.3542 5 11.525 5 11.725C5 11.925 5.07083 12.0958 5.2125 12.2375C5.35417 12.3792 5.525 12.45 5.725 12.45C6.50833 12.45 7.175 12.725 7.725 13.275C8.275 13.825 8.55 14.4917 8.55 15.275C8.55 15.475 8.62083 15.6458 8.7625 15.7875C8.90417 15.9292 9.075 16 9.275 16Z" fill="#181818"/>
</svg>
